<?xml version="1.0" encoding="UTF-8" standalone="no"?>
<!-- Created with Inkscape (http://www.inkscape.org/) -->
<svg
   xmlns:dc="http://purl.org/dc/elements/1.1/"
   xmlns:cc="http://creativecommons.org/ns#"
   xmlns:rdf="http://www.w3.org/1999/02/22-rdf-syntax-ns#"
   xmlns:svg="http://www.w3.org/2000/svg"
   xmlns="http://www.w3.org/2000/svg"
   xmlns:sodipodi="http://sodipodi.sourceforge.net/DTD/sodipodi-0.dtd"
   xmlns:inkscape="http://www.inkscape.org/namespaces/inkscape"
   id="svg2403"
   sodipodi:version="0.32"
   inkscape:version="0.46"
   width="990"
   height="765"
   xml:space="preserve"
   sodipodi:docname="dollar_summary.svg"
   inkscape:output_extension="org.inkscape.output.svg.inkscape"><metadata
     id="metadata2408"><rdf:RDF><cc:Work
         rdf:about=""><dc:format>image/svg+xml</dc:format><dc:type
           rdf:resource="http://purl.org/dc/dcmitype/StillImage" /></cc:Work></rdf:RDF></metadata><defs
     id="defs2406"><inkscape:perspective
       sodipodi:type="inkscape:persp3d"
       inkscape:vp_x="0 : 526.18109 : 1"
       inkscape:vp_y="0 : 1000 : 0"
       inkscape:vp_z="744.09448 : 526.18109 : 1"
       inkscape:persp3d-origin="372.04724 : 350.78739 : 1"
       id="perspective2410" /><clipPath
       clipPathUnits="userSpaceOnUse"
       id="clipPath2422"><path
         d="M 3376,1076 L 3376,5994 L 3377,5994 L 3377,1076 L 3376,1076 z"
         id="path2424" /></clipPath><clipPath
       clipPathUnits="userSpaceOnUse"
       id="clipPath2432"><path
         d="M 2849,1076 L 2849,5994 L 2850,5994 L 2850,1076 L 2849,1076 z"
         id="path2434" /></clipPath><clipPath
       clipPathUnits="userSpaceOnUse"
       id="clipPath2442"><path
         d="M 2323,1076 L 2323,5994 L 2324,5994 L 2324,1076 L 2323,1076 z"
         id="path2444" /></clipPath><clipPath
       clipPathUnits="userSpaceOnUse"
       id="clipPath2452"><path
         d="M 1796,1076 L 1796,5994 L 1797,5994 L 1797,1076 L 1796,1076 z"
         id="path2454" /></clipPath><clipPath
       clipPathUnits="userSpaceOnUse"
       id="clipPath2462"><path
         d="M 1269,1076 L 1269,5994 L 1270,5994 L 1270,1076 L 1269,1076 z"
         id="path2464" /></clipPath><clipPath
       clipPathUnits="userSpaceOnUse"
       id="clipPath2476"><path
         d="M 1462,1281 L 1462,1691 L 3903,1691 L 3903,1281 L 1462,1281 z"
         id="path2478" /></clipPath><clipPath
       clipPathUnits="userSpaceOnUse"
       id="clipPath2488"><path
         d="M 1549,2920 L 1549,3330 L 3903,3330 L 3903,2920 L 1549,2920 z"
         id="path2490" /></clipPath><clipPath
       clipPathUnits="userSpaceOnUse"
       id="clipPath2500"><path
         d="M 1592,4560 L 1592,4970 L 3903,4970 L 3903,4560 L 1592,4560 z"
         id="path2502" /></clipPath><clipPath
       clipPathUnits="userSpaceOnUse"
       id="clipPath2510"><path
         d="M 1524,1641 L 1524,2150 L 3903,2150 L 3903,1641 L 1524,1641 z"
         id="path2512" /></clipPath><clipPath
       clipPathUnits="userSpaceOnUse"
       id="clipPath2522"><path
         d="M 1453,3280 L 1453,3790 L 3903,3790 L 3903,3280 L 1453,3280 z"
         id="path2524" /></clipPath><clipPath
       clipPathUnits="userSpaceOnUse"
       id="clipPath2534"><path
         d="M 1495,4920 L 1495,5429 L 3903,5429 L 3903,4920 L 1495,4920 z"
         id="path2536" /></clipPath><clipPath
       clipPathUnits="userSpaceOnUse"
       id="clipPath2546"><path
         d="M 1526,2050 L 1526,2560 L 3903,2560 L 3903,2050 L 1526,2050 z"
         id="path2548" /></clipPath><clipPath
       clipPathUnits="userSpaceOnUse"
       id="clipPath2558"><path
         d="M 1478,3690 L 1478,4200 L 3903,4200 L 3903,3690 L 1478,3690 z"
         id="path2560" /></clipPath><clipPath
       clipPathUnits="userSpaceOnUse"
       id="clipPath2570"><path
         d="M 1353,5329 L 1353,5839 L 3903,5839 L 3903,5329 L 1353,5329 z"
         id="path2572" /></clipPath></defs><sodipodi:namedview
     inkscape:window-height="669"
     inkscape:window-width="640"
     inkscape:pageshadow="2"
     inkscape:pageopacity="0.0"
     guidetolerance="10.0"
     gridtolerance="10.0"
     objecttolerance="10.0"
     borderopacity="1.0"
     bordercolor="#666666"
     pagecolor="#ffffff"
     id="base"
     showgrid="false"
     inkscape:zoom="0.54949495"
     inkscape:cx="495"
     inkscape:cy="385.35601"
     inkscape:window-x="854"
     inkscape:window-y="134"
     inkscape:current-layer="g2412" /><g
     id="g2412"
     inkscape:groupmode="layer"
     inkscape:label="dollar_summary"
     transform="matrix(0,1.25,1.25,0,0,0)"><path
       id="path2416"
       style="fill:#ffffff;fill-opacity:1;fill-rule:nonzero;stroke:none"
       d="M 75.96,57.96 L 535.2,57.96 L 535.2,733.08 L 75.96,733.08 L 75.96,57.96 z" /><g
       id="g2418"
       transform="scale(0.12,0.12)"><g
         clip-path="url(#clipPath2422)"
         id="g2420"><path
           id="path2426"
           style="fill:none;stroke:#b4b4b4;stroke-width:1;stroke-linecap:round;stroke-linejoin:round;stroke-miterlimit:10;stroke-dasharray:none;stroke-opacity:1"
           d="M 3376,1076 L 3376,5994" /></g></g><g
       id="g2428"
       transform="scale(0.12,0.12)"><g
         clip-path="url(#clipPath2432)"
         id="g2430"><path
           id="path2436"
           style="fill:none;stroke:#b4b4b4;stroke-width:1;stroke-linecap:round;stroke-linejoin:round;stroke-miterlimit:10;stroke-dasharray:none;stroke-opacity:1"
           d="M 2849,1076 L 2849,5994" /></g></g><g
       id="g2438"
       transform="scale(0.12,0.12)"><g
         clip-path="url(#clipPath2442)"
         id="g2440"><path
           id="path2446"
           style="fill:none;stroke:#b4b4b4;stroke-width:1;stroke-linecap:round;stroke-linejoin:round;stroke-miterlimit:10;stroke-dasharray:none;stroke-opacity:1"
           d="M 2323,1076 L 2323,5994" /></g></g><g
       id="g2448"
       transform="scale(0.12,0.12)"><g
         clip-path="url(#clipPath2452)"
         id="g2450"><path
           id="path2456"
           style="fill:none;stroke:#b4b4b4;stroke-width:1;stroke-linecap:round;stroke-linejoin:round;stroke-miterlimit:10;stroke-dasharray:none;stroke-opacity:1"
           d="M 1796,1076 L 1796,5994" /></g></g><g
       id="g2458"
       transform="scale(0.12,0.12)"><g
         clip-path="url(#clipPath2462)"
         id="g2460"><path
           id="path2466"
           style="fill:none;stroke:#b4b4b4;stroke-width:1;stroke-linecap:round;stroke-linejoin:round;stroke-miterlimit:10;stroke-dasharray:none;stroke-opacity:1"
           d="M 1269,1076 L 1269,5994" /></g></g><path
       id="path2468"
       style="fill:none;stroke:#b4b4b4;stroke-width:0.12;stroke-linecap:round;stroke-linejoin:round;stroke-miterlimit:10;stroke-dasharray:none;stroke-opacity:1"
       d="M 152.28,129.12 L 468.36,129.12 L 468.36,719.28 L 152.28,719.28 L 152.28,129.12 z" /><path
       id="path2470"
       style="fill:#0000ff;fill-opacity:1;fill-rule:nonzero;stroke:none"
       d="M 175.56,153.84 L 468.36,153.84 L 468.36,202.8 L 175.56,202.8 L 175.56,153.84 z" /><g
       id="g2472"
       transform="scale(0.12,0.12)"><g
         clip-path="url(#clipPath2476)"
         id="g2474"><path
           id="path2480"
           style="fill:none;stroke:#000000;stroke-width:1;stroke-linecap:round;stroke-linejoin:round;stroke-miterlimit:10;stroke-dasharray:none;stroke-opacity:1"
           d="M 1462,1281 L 3903,1281 L 3903,1690 L 1462,1690 L 1462,1281 z" /></g></g><path
       id="path2482"
       style="fill:#0000ff;fill-opacity:1;fill-rule:nonzero;stroke:none"
       d="M 186,350.52 L 468.36,350.52 L 468.36,399.48 L 186,399.48 L 186,350.52 z" /><g
       id="g2484"
       transform="scale(0.12,0.12)"><g
         clip-path="url(#clipPath2488)"
         id="g2486"><path
           id="path2492"
           style="fill:none;stroke:#000000;stroke-width:1;stroke-linecap:round;stroke-linejoin:round;stroke-miterlimit:10;stroke-dasharray:none;stroke-opacity:1"
           d="M 1549,2920 L 3903,2920 L 3903,3329 L 1549,3329 L 1549,2920 z" /></g></g><path
       id="path2494"
       style="fill:#0000ff;fill-opacity:1;fill-rule:nonzero;stroke:none"
       d="M 191.16,547.32 L 468.36,547.32 L 468.36,596.28 L 191.16,596.28 L 191.16,547.32 z" /><g
       id="g2496"
       transform="scale(0.12,0.12)"><g
         clip-path="url(#clipPath2500)"
         id="g2498"><path
           id="path2504"
           style="fill:none;stroke:#000000;stroke-width:1;stroke-linecap:round;stroke-linejoin:round;stroke-miterlimit:10;stroke-dasharray:none;stroke-opacity:1"
           d="M 1592,4560 L 3903,4560 L 3903,4969 L 1592,4969 L 1592,4560 z" /></g></g><g
       id="g2506"
       transform="scale(0.12,0.12)"><g
         clip-path="url(#clipPath2510)"
         id="g2508"><path
           id="path2514"
           style="fill:#32cccc;fill-opacity:1;fill-rule:evenodd;stroke:none"
           d="M 1574,1691 L 3903,1691 L 3903,2099 L 1574,2099 L 1574,1691 z" /><path
           id="path2516"
           style="fill:none;stroke:#000000;stroke-width:8;stroke-linecap:round;stroke-linejoin:miter;stroke-miterlimit:10;stroke-dasharray:none;stroke-opacity:1"
           d="M 1574,1691 L 3903,1691 L 3903,2099 L 1574,2099 L 1574,1691 z" /></g></g><g
       id="g2518"
       transform="scale(0.12,0.12)"><g
         clip-path="url(#clipPath2522)"
         id="g2520"><path
           id="path2526"
           style="fill:#32cccc;fill-opacity:1;fill-rule:evenodd;stroke:none"
           d="M 1503,3330 L 3903,3330 L 3903,3739 L 1503,3739 L 1503,3330 z" /><path
           id="path2528"
           style="fill:none;stroke:#000000;stroke-width:8;stroke-linecap:round;stroke-linejoin:miter;stroke-miterlimit:10;stroke-dasharray:none;stroke-opacity:1"
           d="M 1503,3330 L 3903,3330 L 3903,3739 L 1503,3739 L 1503,3330 z" /></g></g><g
       id="g2530"
       transform="scale(0.12,0.12)"><g
         clip-path="url(#clipPath2534)"
         id="g2532"><path
           id="path2538"
           style="fill:#32cccc;fill-opacity:1;fill-rule:evenodd;stroke:none"
           d="M 1545,4970 L 3903,4970 L 3903,5378 L 1545,5378 L 1545,4970 z" /><path
           id="path2540"
           style="fill:none;stroke:#000000;stroke-width:8;stroke-linecap:round;stroke-linejoin:miter;stroke-miterlimit:10;stroke-dasharray:none;stroke-opacity:1"
           d="M 1545,4970 L 3903,4970 L 3903,5378 L 1545,5378 L 1545,4970 z" /></g></g><g
       id="g2542"
       transform="scale(0.12,0.12)"><g
         clip-path="url(#clipPath2546)"
         id="g2544"><path
           id="path2550"
           style="fill:#ffffcc;fill-opacity:1;fill-rule:evenodd;stroke:none"
           d="M 1576,2100 L 3903,2100 L 3903,2509 L 1576,2509 L 1576,2100 z" /><path
           id="path2552"
           style="fill:none;stroke:#000000;stroke-width:8;stroke-linecap:round;stroke-linejoin:miter;stroke-miterlimit:10;stroke-dasharray:none;stroke-opacity:1"
           d="M 1576,2100 L 3903,2100 L 3903,2509 L 1576,2509 L 1576,2100 z" /></g></g><g
       id="g2554"
       transform="scale(0.12,0.12)"><g
         clip-path="url(#clipPath2558)"
         id="g2556"><path
           id="path2562"
           style="fill:#ffffcc;fill-opacity:1;fill-rule:evenodd;stroke:none"
           d="M 1528,3740 L 3903,3740 L 3903,4149 L 1528,4149 L 1528,3740 z" /><path
           id="path2564"
           style="fill:none;stroke:#000000;stroke-width:8;stroke-linecap:round;stroke-linejoin:miter;stroke-miterlimit:10;stroke-dasharray:none;stroke-opacity:1"
           d="M 1528,3740 L 3903,3740 L 3903,4149 L 1528,4149 L 1528,3740 z" /></g></g><g
       id="g2566"
       transform="scale(0.12,0.12)"><g
         clip-path="url(#clipPath2570)"
         id="g2568"><path
           id="path2574"
           style="fill:#ffffcc;fill-opacity:1;fill-rule:evenodd;stroke:none"
           d="M 1403,5379 L 3903,5379 L 3903,5788 L 1403,5788 L 1403,5379 z" /><path
           id="path2576"
           style="fill:none;stroke:#000000;stroke-width:8;stroke-linecap:round;stroke-linejoin:miter;stroke-miterlimit:10;stroke-dasharray:none;stroke-opacity:1"
           d="M 1403,5379 L 3903,5379 L 3903,5788 L 1403,5788 L 1403,5379 z" /></g></g><path
       id="path2578"
       style="fill:none;stroke:#000000;stroke-width:0.12;stroke-linecap:round;stroke-linejoin:miter;stroke-miterlimit:10;stroke-dasharray:none;stroke-opacity:1"
       d="M 175.44,178.32 L 158.04,178.32" /><path
       id="path2580"
       style="fill:none;stroke:#000000;stroke-width:0.12;stroke-linecap:round;stroke-linejoin:miter;stroke-miterlimit:10;stroke-dasharray:none;stroke-opacity:1"
       d="M 158.04,175.8 L 158.04,180.96" /><path
       id="path2582"
       style="fill:none;stroke:#000000;stroke-width:0.12;stroke-linecap:round;stroke-linejoin:miter;stroke-miterlimit:10;stroke-dasharray:none;stroke-opacity:1"
       d="M 185.88,375 L 166.8,375" /><path
       id="path2584"
       style="fill:none;stroke:#000000;stroke-width:0.12;stroke-linecap:round;stroke-linejoin:miter;stroke-miterlimit:10;stroke-dasharray:none;stroke-opacity:1"
       d="M 166.8,372.48 L 166.8,377.64" /><path
       id="path2586"
       style="fill:none;stroke:#000000;stroke-width:0.12;stroke-linecap:round;stroke-linejoin:miter;stroke-miterlimit:10;stroke-dasharray:none;stroke-opacity:1"
       d="M 191.04,571.8 L 175.56,571.8" /><path
       id="path2588"
       style="fill:none;stroke:#000000;stroke-width:0.12;stroke-linecap:round;stroke-linejoin:miter;stroke-miterlimit:10;stroke-dasharray:none;stroke-opacity:1"
       d="M 175.56,569.28 L 175.56,574.44" /><path
       id="path2590"
       style="fill:none;stroke:#000000;stroke-width:0.12;stroke-linecap:round;stroke-linejoin:miter;stroke-miterlimit:10;stroke-dasharray:none;stroke-opacity:1"
       d="M 175.44,178.32 L 192.84,178.32" /><path
       id="path2592"
       style="fill:none;stroke:#000000;stroke-width:0.12;stroke-linecap:round;stroke-linejoin:miter;stroke-miterlimit:10;stroke-dasharray:none;stroke-opacity:1"
       d="M 192.84,175.8 L 192.84,180.96" /><path
       id="path2594"
       style="fill:none;stroke:#000000;stroke-width:0.12;stroke-linecap:round;stroke-linejoin:miter;stroke-miterlimit:10;stroke-dasharray:none;stroke-opacity:1"
       d="M 185.88,375 L 205.08,375" /><path
       id="path2596"
       style="fill:none;stroke:#000000;stroke-width:0.12;stroke-linecap:round;stroke-linejoin:miter;stroke-miterlimit:10;stroke-dasharray:none;stroke-opacity:1"
       d="M 205.08,372.48 L 205.08,377.64" /><path
       id="path2598"
       style="fill:none;stroke:#000000;stroke-width:0.12;stroke-linecap:round;stroke-linejoin:miter;stroke-miterlimit:10;stroke-dasharray:none;stroke-opacity:1"
       d="M 191.04,571.8 L 206.52,571.8" /><path
       id="path2600"
       style="fill:none;stroke:#000000;stroke-width:0.12;stroke-linecap:round;stroke-linejoin:miter;stroke-miterlimit:10;stroke-dasharray:none;stroke-opacity:1"
       d="M 206.52,569.28 L 206.52,574.44" /><path
       id="path2602"
       style="fill:none;stroke:#000000;stroke-width:0.95999998;stroke-linecap:round;stroke-linejoin:round;stroke-miterlimit:10;stroke-dasharray:none;stroke-opacity:1"
       d="M 188.88,227.4 L 174.96,227.4" /><path
       id="path2604"
       style="fill:none;stroke:#000000;stroke-width:0.95999998;stroke-linecap:round;stroke-linejoin:round;stroke-miterlimit:10;stroke-dasharray:none;stroke-opacity:1"
       d="M 174.96,224.88 L 174.96,230.04" /><path
       id="path2606"
       style="fill:none;stroke:#000000;stroke-width:0.95999998;stroke-linecap:round;stroke-linejoin:round;stroke-miterlimit:10;stroke-dasharray:none;stroke-opacity:1"
       d="M 180.36,424.2 L 163.68,424.2" /><path
       id="path2608"
       style="fill:none;stroke:#000000;stroke-width:0.95999998;stroke-linecap:round;stroke-linejoin:round;stroke-miterlimit:10;stroke-dasharray:none;stroke-opacity:1"
       d="M 163.68,421.68 L 163.68,426.84" /><path
       id="path2610"
       style="fill:none;stroke:#000000;stroke-width:0.95999998;stroke-linecap:round;stroke-linejoin:round;stroke-miterlimit:10;stroke-dasharray:none;stroke-opacity:1"
       d="M 185.4,620.88 L 169.32,620.88" /><path
       id="path2612"
       style="fill:none;stroke:#000000;stroke-width:0.95999998;stroke-linecap:round;stroke-linejoin:round;stroke-miterlimit:10;stroke-dasharray:none;stroke-opacity:1"
       d="M 169.32,618.36 L 169.32,623.52" /><path
       id="path2614"
       style="fill:none;stroke:#000000;stroke-width:0.95999998;stroke-linecap:round;stroke-linejoin:round;stroke-miterlimit:10;stroke-dasharray:none;stroke-opacity:1"
       d="M 188.88,227.4 L 202.8,227.4" /><path
       id="path2616"
       style="fill:none;stroke:#000000;stroke-width:0.95999998;stroke-linecap:round;stroke-linejoin:round;stroke-miterlimit:10;stroke-dasharray:none;stroke-opacity:1"
       d="M 202.8,224.88 L 202.8,230.04" /><path
       id="path2618"
       style="fill:none;stroke:#000000;stroke-width:0.95999998;stroke-linecap:round;stroke-linejoin:round;stroke-miterlimit:10;stroke-dasharray:none;stroke-opacity:1"
       d="M 180.36,424.2 L 197.04,424.2" /><path
       id="path2620"
       style="fill:none;stroke:#000000;stroke-width:0.95999998;stroke-linecap:round;stroke-linejoin:round;stroke-miterlimit:10;stroke-dasharray:none;stroke-opacity:1"
       d="M 197.04,421.68 L 197.04,426.84" /><path
       id="path2622"
       style="fill:none;stroke:#000000;stroke-width:0.95999998;stroke-linecap:round;stroke-linejoin:round;stroke-miterlimit:10;stroke-dasharray:none;stroke-opacity:1"
       d="M 185.4,620.88 L 201.48,620.88" /><path
       id="path2624"
       style="fill:none;stroke:#000000;stroke-width:0.95999998;stroke-linecap:round;stroke-linejoin:round;stroke-miterlimit:10;stroke-dasharray:none;stroke-opacity:1"
       d="M 201.48,618.36 L 201.48,623.52" /><path
       id="path2626"
       style="fill:none;stroke:#000000;stroke-width:0.95999998;stroke-linecap:round;stroke-linejoin:round;stroke-miterlimit:10;stroke-dasharray:none;stroke-opacity:1"
       d="M 189.12,276.6 L 171.24,276.6" /><path
       id="path2628"
       style="fill:none;stroke:#000000;stroke-width:0.95999998;stroke-linecap:round;stroke-linejoin:round;stroke-miterlimit:10;stroke-dasharray:none;stroke-opacity:1"
       d="M 171.24,274.08 L 171.24,279.24" /><path
       id="path2630"
       style="fill:none;stroke:#000000;stroke-width:0.95999998;stroke-linecap:round;stroke-linejoin:round;stroke-miterlimit:10;stroke-dasharray:none;stroke-opacity:1"
       d="M 183.36,473.4 L 169.56,473.4" /><path
       id="path2632"
       style="fill:none;stroke:#000000;stroke-width:0.95999998;stroke-linecap:round;stroke-linejoin:round;stroke-miterlimit:10;stroke-dasharray:none;stroke-opacity:1"
       d="M 169.56,470.88 L 169.56,476.04" /><path
       id="path2634"
       style="fill:none;stroke:#000000;stroke-width:0.95999998;stroke-linecap:round;stroke-linejoin:round;stroke-miterlimit:10;stroke-dasharray:none;stroke-opacity:1"
       d="M 168.36,670.08 L 158.16,670.08" /><path
       id="path2636"
       style="fill:none;stroke:#000000;stroke-width:0.95999998;stroke-linecap:round;stroke-linejoin:round;stroke-miterlimit:10;stroke-dasharray:none;stroke-opacity:1"
       d="M 158.16,667.56 L 158.16,672.72" /><path
       id="path2638"
       style="fill:none;stroke:#000000;stroke-width:0.95999998;stroke-linecap:round;stroke-linejoin:round;stroke-miterlimit:10;stroke-dasharray:none;stroke-opacity:1"
       d="M 189.12,276.6 L 207,276.6" /><path
       id="path2640"
       style="fill:none;stroke:#000000;stroke-width:0.95999998;stroke-linecap:round;stroke-linejoin:round;stroke-miterlimit:10;stroke-dasharray:none;stroke-opacity:1"
       d="M 207,274.08 L 207,279.24" /><path
       id="path2642"
       style="fill:none;stroke:#000000;stroke-width:0.95999998;stroke-linecap:round;stroke-linejoin:round;stroke-miterlimit:10;stroke-dasharray:none;stroke-opacity:1"
       d="M 183.36,473.4 L 197.16,473.4" /><path
       id="path2644"
       style="fill:none;stroke:#000000;stroke-width:0.95999998;stroke-linecap:round;stroke-linejoin:round;stroke-miterlimit:10;stroke-dasharray:none;stroke-opacity:1"
       d="M 197.16,470.88 L 197.16,476.04" /><path
       id="path2646"
       style="fill:none;stroke:#000000;stroke-width:0.95999998;stroke-linecap:round;stroke-linejoin:round;stroke-miterlimit:10;stroke-dasharray:none;stroke-opacity:1"
       d="M 168.36,670.08 L 178.44,670.08" /><path
       id="path2648"
       style="fill:none;stroke:#000000;stroke-width:0.95999998;stroke-linecap:round;stroke-linejoin:round;stroke-miterlimit:10;stroke-dasharray:none;stroke-opacity:1"
       d="M 178.44,667.56 L 178.44,672.72" /><path
       id="path2650"
       style="fill:none;stroke:#b4b4b4;stroke-width:0.12;stroke-linecap:round;stroke-linejoin:round;stroke-miterlimit:10;stroke-dasharray:none;stroke-opacity:1"
       d="M 152.28,129.12 L 468.36,129.12" /><path
       id="path2652"
       style="fill:none;stroke:#b4b4b4;stroke-width:0.12;stroke-linecap:round;stroke-linejoin:round;stroke-miterlimit:10;stroke-dasharray:none;stroke-opacity:1"
       d="M 468.36,119.4 L 468.36,129.12" /><path
       id="path2654"
       style="fill:none;stroke:#b4b4b4;stroke-width:0.12;stroke-linecap:round;stroke-linejoin:round;stroke-miterlimit:10;stroke-dasharray:none;stroke-opacity:1"
       d="M 405.12,119.4 L 405.12,129.12" /><path
       id="path2656"
       style="fill:none;stroke:#b4b4b4;stroke-width:0.12;stroke-linecap:round;stroke-linejoin:round;stroke-miterlimit:10;stroke-dasharray:none;stroke-opacity:1"
       d="M 341.88,119.4 L 341.88,129.12" /><path
       id="path2658"
       style="fill:none;stroke:#b4b4b4;stroke-width:0.12;stroke-linecap:round;stroke-linejoin:round;stroke-miterlimit:10;stroke-dasharray:none;stroke-opacity:1"
       d="M 278.76,119.4 L 278.76,129.12" /><path
       id="path2660"
       style="fill:none;stroke:#b4b4b4;stroke-width:0.12;stroke-linecap:round;stroke-linejoin:round;stroke-miterlimit:10;stroke-dasharray:none;stroke-opacity:1"
       d="M 215.52,119.4 L 215.52,129.12" /><path
       id="path2662"
       style="fill:none;stroke:#b4b4b4;stroke-width:0.12;stroke-linecap:round;stroke-linejoin:round;stroke-miterlimit:10;stroke-dasharray:none;stroke-opacity:1"
       d="M 152.28,119.4 L 152.28,129.12" /><path
       id="path2664"
       style="fill:none;stroke:#b4b4b4;stroke-width:0.12;stroke-linecap:round;stroke-linejoin:round;stroke-miterlimit:10;stroke-dasharray:none;stroke-opacity:1"
       d="M 468.36,129.12 L 468.36,719.28" /><path
       id="path2666"
       style="fill:none;stroke:#b4b4b4;stroke-width:0.12;stroke-linecap:round;stroke-linejoin:round;stroke-miterlimit:10;stroke-dasharray:none;stroke-opacity:1"
       d="M 478.08,129.12 L 468.36,129.12" /><path
       id="path2668"
       style="fill:none;stroke:#b4b4b4;stroke-width:0.12;stroke-linecap:round;stroke-linejoin:round;stroke-miterlimit:10;stroke-dasharray:none;stroke-opacity:1"
       d="M 478.08,325.8 L 468.36,325.8" /><path
       id="path2670"
       style="fill:none;stroke:#b4b4b4;stroke-width:0.12;stroke-linecap:round;stroke-linejoin:round;stroke-miterlimit:10;stroke-dasharray:none;stroke-opacity:1"
       d="M 478.08,522.6 L 468.36,522.6" /><path
       id="path2672"
       style="fill:none;stroke:#b4b4b4;stroke-width:0.12;stroke-linecap:round;stroke-linejoin:round;stroke-miterlimit:10;stroke-dasharray:none;stroke-opacity:1"
       d="M 478.08,719.28 L 468.36,719.28" /><g
       id="g2674"><text
         id="text2676"
         transform="matrix(0,1,0.9981235,0,466.8,63.48)"><tspan
           id="tspan2678"
           sodipodi:role="line"
           y="0"
           x="0 9.7199736 14.519963 24.239937 33.959911"
           style="font-size:17.43271255px;font-variant:normal;font-weight:normal;writing-mode:lr-tb;fill:#000000;fill-opacity:1;fill-rule:nonzero;stroke:none;font-family:Helvetica;-inkscape-font-specification:Helvetica">0.000</tspan><tspan
           id="tspan2680"
           sodipodi:role="line"
           y="-63.358891"
           x="0 9.7199736 14.519963 24.239937 33.959911"
           style="font-size:17.43271255px;font-variant:normal;font-weight:normal;writing-mode:lr-tb;fill:#000000;fill-opacity:1;fill-rule:nonzero;stroke:none;font-family:Helvetica;-inkscape-font-specification:Helvetica">0.200</tspan><tspan
           id="tspan2682"
           sodipodi:role="line"
           y="-126.71778"
           x="0 9.7199736 14.519963 24.239937 33.959911"
           style="font-size:17.43271255px;font-variant:normal;font-weight:normal;writing-mode:lr-tb;fill:#000000;fill-opacity:1;fill-rule:nonzero;stroke:none;font-family:Helvetica;-inkscape-font-specification:Helvetica">0.400</tspan><tspan
           id="tspan2684"
           sodipodi:role="line"
           y="-189.95645"
           x="0 9.7199736 14.519963 24.239937 33.959911"
           style="font-size:17.43271255px;font-variant:normal;font-weight:normal;writing-mode:lr-tb;fill:#000000;fill-opacity:1;fill-rule:nonzero;stroke:none;font-family:Helvetica;-inkscape-font-specification:Helvetica">0.600</tspan><tspan
           id="tspan2686"
           sodipodi:role="line"
           y="-253.31534"
           x="0 9.7199736 14.519963 24.239937 33.959911"
           style="font-size:17.43271255px;font-variant:normal;font-weight:normal;writing-mode:lr-tb;fill:#000000;fill-opacity:1;fill-rule:nonzero;stroke:none;font-family:Helvetica;-inkscape-font-specification:Helvetica">0.800</tspan><tspan
           id="tspan2688"
           sodipodi:role="line"
           y="-316.67422"
           x="0 9.7199736 14.519963 24.239937 33.959911"
           style="font-size:17.43271255px;font-variant:normal;font-weight:normal;writing-mode:lr-tb;fill:#000000;fill-opacity:1;fill-rule:nonzero;stroke:none;font-family:Helvetica;-inkscape-font-specification:Helvetica">1.000</tspan><tspan
           id="tspan2690"
           sodipodi:role="line"
           y="43.160992"
           x="125.51953 137.1595 145.43948 155.15947 159.95946 169.67943 174.47942 179.27942 188.99939 197.75937 324.11899 336.71893 346.43893 356.15891 364.43887 369.23886 374.03885 383.75882 392.5188 529.31854 534.11853 542.87848 552.59845 557.39844 562.19843 571.9184 580.67834"
           style="font-size:17.43271255px;font-variant:normal;font-weight:normal;writing-mode:lr-tb;fill:#000000;fill-opacity:1;fill-rule:nonzero;stroke:none;font-family:Helvetica;-inkscape-font-specification:Helvetica">Synth testCopy testIso test</tspan></text>
</g><path
       id="path2692"
       style="fill:#ffffff;fill-opacity:1;fill-rule:nonzero;stroke:none"
       d="M 81.6,183.96 L 126.48,183.96 L 126.48,620.76 L 81.6,620.76 L 81.6,183.96 z" /><path
       id="path2694"
       style="fill:none;stroke:#000000;stroke-width:0.12;stroke-linecap:round;stroke-linejoin:round;stroke-miterlimit:10;stroke-dasharray:none;stroke-opacity:1"
       d="M 81.48,183.84 L 126.48,183.84 L 126.48,620.76 L 81.48,620.76 L 81.48,183.84 z" /><path
       id="path2696"
       style="fill:#0000ff;fill-opacity:1;fill-rule:nonzero;stroke:none"
       d="M 99,189.48 L 112.32,189.48 L 112.32,202.8 L 99,202.8 L 99,189.48 z" /><path
       id="path2698"
       style="fill:none;stroke:#000000;stroke-width:0.12;stroke-linecap:round;stroke-linejoin:round;stroke-miterlimit:10;stroke-dasharray:none;stroke-opacity:1"
       d="M 98.88,189.36 L 112.32,189.36 L 112.32,202.8 L 98.88,202.8 L 98.88,189.36 z" /><g
       id="g2700"><text
         id="text2702"
         transform="matrix(0,1,0.9981235,0,112.44,208.08)"><tspan
           id="tspan2704"
           sodipodi:role="line"
           y="0"
           x="0 14.640008 25.560011 37.800018 43.92001 56.160019 62.28001 68.400002 75.720009 87.960022 92.88002 105.12003 117.36004"
           style="font-size:22.00128555px;font-variant:normal;font-weight:normal;writing-mode:lr-tb;fill:#000000;fill-opacity:1;fill-rule:nonzero;stroke:none;font-family:Helvetica;-inkscape-font-specification:Helvetica">Synth trained</tspan></text>
</g><path
       id="path2706"
       style="fill:#32cccc;fill-opacity:1;fill-rule:evenodd;stroke:none"
       d="M 98.52,345.6 L 111.96,345.6 L 111.96,359.04 L 98.52,359.04 L 98.52,345.6 z" /><path
       id="path2708"
       style="fill:none;stroke:#000000;stroke-width:0.95999998;stroke-linecap:round;stroke-linejoin:miter;stroke-miterlimit:10;stroke-dasharray:none;stroke-opacity:1"
       d="M 98.52,345.6 L 111.96,345.6 L 111.96,359.04 L 98.52,359.04 L 98.52,345.6 z" /><g
       id="g2710"><text
         id="text2712"
         transform="matrix(0,1,0.9981235,0,112.44,364.32)"><tspan
           id="tspan2714"
           sodipodi:role="line"
           y="0"
           x="0 15.840015 28.080025 40.320034 51.240051 57.360043 63.48003 70.800041 83.040054 87.960052 100.20006 112.44007"
           style="font-size:22.00128555px;font-variant:normal;font-weight:normal;writing-mode:lr-tb;fill:#000000;fill-opacity:1;fill-rule:nonzero;stroke:none;font-family:Helvetica;-inkscape-font-specification:Helvetica">Copy trained</tspan></text>
</g><path
       id="path2716"
       style="fill:#ffffcc;fill-opacity:1;fill-rule:evenodd;stroke:none"
       d="M 98.52,496.92 L 111.96,496.92 L 111.96,510.36 L 98.52,510.36 L 98.52,496.92 z" /><path
       id="path2718"
       style="fill:none;stroke:#000000;stroke-width:0.95999998;stroke-linecap:round;stroke-linejoin:miter;stroke-miterlimit:10;stroke-dasharray:none;stroke-opacity:1"
       d="M 98.52,496.92 L 111.96,496.92 L 111.96,510.36 L 98.52,510.36 L 98.52,496.92 z" /><g
       id="g2720"><text
         id="text2722"
         transform="matrix(0,1,0.9981235,0,112.44,515.64)"><tspan
           id="tspan2724"
           sodipodi:role="line"
           y="0"
           x="0 6.1199899 17.160007 29.399988 35.519978 41.639969 48.959949 61.199928 66.119957 78.35994 90.599915"
           style="font-size:22.00128555px;font-variant:normal;font-weight:normal;writing-mode:lr-tb;fill:#000000;fill-opacity:1;fill-rule:nonzero;stroke:none;font-family:Helvetica;-inkscape-font-specification:Helvetica">Iso trained</tspan></text>
</g></g></svg>