<?xml version="1.0" encoding="UTF-8" standalone="no"?>
<!-- Created with Inkscape (http://www.inkscape.org/) -->
<svg
   xmlns:dc="http://purl.org/dc/elements/1.1/"
   xmlns:cc="http://creativecommons.org/ns#"
   xmlns:rdf="http://www.w3.org/1999/02/22-rdf-syntax-ns#"
   xmlns:svg="http://www.w3.org/2000/svg"
   xmlns="http://www.w3.org/2000/svg"
   xmlns:sodipodi="http://sodipodi.sourceforge.net/DTD/sodipodi-0.dtd"
   xmlns:inkscape="http://www.inkscape.org/namespaces/inkscape"
   width="792pt"
   height="612pt"
   id="svg2449"
   sodipodi:version="0.32"
   inkscape:version="0.46"
   sodipodi:docname="dollar_image_combo.svg"
   inkscape:output_extension="org.inkscape.output.svg.inkscape">
  <defs
     id="defs2451">
    <inkscape:perspective
       sodipodi:type="inkscape:persp3d"
       inkscape:vp_x="0 : 382.5 : 1"
       inkscape:vp_y="0 : 1000 : 0"
       inkscape:vp_z="990 : 382.5 : 1"
       inkscape:persp3d-origin="495 : 255 : 1"
       id="perspective2458" />
    <clipPath
       id="clipPath2645"
       clipPathUnits="userSpaceOnUse">
      <path
         id="path2647"
         d="M 1508,5016 L 1508,5674 L 3933,5674 L 3933,5016 L 1508,5016 z" />
    </clipPath>
    <clipPath
       id="clipPath2633"
       clipPathUnits="userSpaceOnUse">
      <path
         id="path2635"
         d="M 1457,2506 L 1457,3164 L 3933,3164 L 3933,2506 L 1457,2506 z" />
    </clipPath>
    <clipPath
       id="clipPath2621"
       clipPathUnits="userSpaceOnUse">
      <path
         id="path2623"
         d="M 1580,4459 L 1580,5116 L 3933,5116 L 3933,4459 L 1580,4459 z" />
    </clipPath>
    <clipPath
       id="clipPath2609"
       clipPathUnits="userSpaceOnUse">
      <path
         id="path2611"
         d="M 1455,1948 L 1455,2606 L 3933,2606 L 3933,1948 L 1455,1948 z" />
    </clipPath>
    <clipPath
       id="clipPath2597"
       clipPathUnits="userSpaceOnUse">
      <path
         id="path2599"
         d="M 1424,3901 L 1424,4559 L 3933,4559 L 3933,3901 L 1424,3901 z" />
    </clipPath>
    <clipPath
       id="clipPath2585"
       clipPathUnits="userSpaceOnUse">
      <path
         id="path2587"
         d="M 1338,1390 L 1338,2048 L 3933,2048 L 3933,1390 L 1338,1390 z" />
    </clipPath>
    <clipPath
       id="clipPath2573"
       clipPathUnits="userSpaceOnUse">
      <path
         id="path2575"
         d="M 1187,1022 L 1187,6043 L 1188,6043 L 1188,1022 L 1187,1022 z" />
    </clipPath>
    <clipPath
       id="clipPath2563"
       clipPathUnits="userSpaceOnUse">
      <path
         id="path2565"
         d="M 1462,1022 L 1462,6043 L 1463,6043 L 1463,1022 L 1462,1022 z" />
    </clipPath>
    <clipPath
       id="clipPath2553"
       clipPathUnits="userSpaceOnUse">
      <path
         id="path2555"
         d="M 1736,1022 L 1736,6043 L 1737,6043 L 1737,1022 L 1736,1022 z" />
    </clipPath>
    <clipPath
       id="clipPath2543"
       clipPathUnits="userSpaceOnUse">
      <path
         id="path2545"
         d="M 2011,1022 L 2011,6043 L 2012,6043 L 2012,1022 L 2011,1022 z" />
    </clipPath>
    <clipPath
       id="clipPath2533"
       clipPathUnits="userSpaceOnUse">
      <path
         id="path2535"
         d="M 2285,1022 L 2285,6043 L 2286,6043 L 2286,1022 L 2285,1022 z" />
    </clipPath>
    <clipPath
       id="clipPath2523"
       clipPathUnits="userSpaceOnUse">
      <path
         id="path2525"
         d="M 2560,1022 L 2560,6043 L 2561,6043 L 2561,1022 L 2560,1022 z" />
    </clipPath>
    <clipPath
       id="clipPath2513"
       clipPathUnits="userSpaceOnUse">
      <path
         id="path2515"
         d="M 2835,1022 L 2835,6043 L 2836,6043 L 2836,1022 L 2835,1022 z" />
    </clipPath>
    <clipPath
       id="clipPath2503"
       clipPathUnits="userSpaceOnUse">
      <path
         id="path2505"
         d="M 3109,1022 L 3109,6043 L 3110,6043 L 3110,1022 L 3109,1022 z" />
    </clipPath>
    <clipPath
       id="clipPath2493"
       clipPathUnits="userSpaceOnUse">
      <path
         id="path2495"
         d="M 3384,1022 L 3384,6043 L 3385,6043 L 3385,1022 L 3384,1022 z" />
    </clipPath>
    <clipPath
       id="clipPath2483"
       clipPathUnits="userSpaceOnUse">
      <path
         id="path2485"
         d="M 3658,1022 L 3658,6043 L 3659,6043 L 3659,1022 L 3658,1022 z" />
    </clipPath>
    <inkscape:perspective
       id="perspective2467"
       inkscape:persp3d-origin="372.04724 : 350.78739 : 1"
       inkscape:vp_z="744.09448 : 526.18109 : 1"
       inkscape:vp_y="0 : 1000 : 0"
       inkscape:vp_x="0 : 526.18109 : 1"
       sodipodi:type="inkscape:persp3d" />
  </defs>
  <sodipodi:namedview
     inkscape:document-units="in"
     pagecolor="#ffffff"
     bordercolor="#666666"
     borderopacity="1.0"
     inkscape:pageopacity="0.0"
     inkscape:pageshadow="2"
     inkscape:zoom="0.43415836"
     inkscape:cx="500.56836"
     inkscape:cy="395.36651"
     inkscape:current-layer="layer1"
     id="namedview2453"
     showgrid="false"
     inkscape:window-width="640"
     inkscape:window-height="669"
     inkscape:window-x="230"
     inkscape:window-y="230" />
  <metadata
     id="metadata2455">
    <rdf:RDF>
      <cc:Work
         rdf:about="">
        <dc:format>image/svg+xml</dc:format>
        <dc:type
           rdf:resource="http://purl.org/dc/dcmitype/StillImage" />
      </cc:Work>
    </rdf:RDF>
  </metadata>
  <g
     inkscape:label="Layer 1"
     inkscape:groupmode="layer"
     id="layer1">
    <path
       id="path2473"
       style="fill:#ffffff;fill-opacity:1;fill-rule:nonzero;stroke:none"
       d="M 59.666172,88.941115 L 59.666172,662.69112 L 903.26617,662.69112 L 903.26617,88.941115 L 59.666172,88.941115 z" />
    <g
       id="g2479"
       transform="matrix(0,0.15,0.15,0,-12.933828,-6.1588845)">
      <g
         clip-path="url(#clipPath2483)"
         id="g2481">
        <path
           id="path2487"
           style="fill:none;stroke:#000000;stroke-width:1;stroke-linecap:round;stroke-linejoin:round;stroke-miterlimit:10;stroke-dasharray:none;stroke-opacity:1"
           d="M 3658,1022 L 3658,6043" />
      </g>
    </g>
    <g
       id="g2489"
       transform="matrix(0,0.15,0.15,0,-12.933828,-6.1588845)">
      <g
         clip-path="url(#clipPath2493)"
         id="g2491">
        <path
           id="path2497"
           style="fill:none;stroke:#000000;stroke-width:1;stroke-linecap:round;stroke-linejoin:round;stroke-miterlimit:10;stroke-dasharray:none;stroke-opacity:1"
           d="M 3384,1022 L 3384,6043" />
      </g>
    </g>
    <g
       id="g2499"
       transform="matrix(0,0.15,0.15,0,-12.933828,-6.1588845)">
      <g
         clip-path="url(#clipPath2503)"
         id="g2501">
        <path
           id="path2507"
           style="fill:none;stroke:#000000;stroke-width:1;stroke-linecap:round;stroke-linejoin:round;stroke-miterlimit:10;stroke-dasharray:none;stroke-opacity:1"
           d="M 3109,1022 L 3109,6043" />
      </g>
    </g>
    <g
       id="g2509"
       transform="matrix(0,0.15,0.15,0,-12.933828,-6.1588845)">
      <g
         clip-path="url(#clipPath2513)"
         id="g2511">
        <path
           id="path2517"
           style="fill:none;stroke:#000000;stroke-width:1;stroke-linecap:round;stroke-linejoin:round;stroke-miterlimit:10;stroke-dasharray:none;stroke-opacity:1"
           d="M 2835,1022 L 2835,6043" />
      </g>
    </g>
    <g
       id="g2519"
       transform="matrix(0,0.15,0.15,0,-12.933828,-6.1588845)">
      <g
         clip-path="url(#clipPath2523)"
         id="g2521">
        <path
           id="path2527"
           style="fill:none;stroke:#000000;stroke-width:1;stroke-linecap:round;stroke-linejoin:round;stroke-miterlimit:10;stroke-dasharray:none;stroke-opacity:1"
           d="M 2560,1022 L 2560,6043" />
      </g>
    </g>
    <g
       id="g2529"
       transform="matrix(0,0.15,0.15,0,-12.933828,-6.1588845)">
      <g
         clip-path="url(#clipPath2533)"
         id="g2531">
        <path
           id="path2537"
           style="fill:none;stroke:#000000;stroke-width:1;stroke-linecap:round;stroke-linejoin:round;stroke-miterlimit:10;stroke-dasharray:none;stroke-opacity:1"
           d="M 2285,1022 L 2285,6043" />
      </g>
    </g>
    <g
       id="g2539"
       transform="matrix(0,0.15,0.15,0,-12.933828,-6.1588845)">
      <g
         clip-path="url(#clipPath2543)"
         id="g2541">
        <path
           id="path2547"
           style="fill:none;stroke:#000000;stroke-width:1;stroke-linecap:round;stroke-linejoin:round;stroke-miterlimit:10;stroke-dasharray:none;stroke-opacity:1"
           d="M 2011,1022 L 2011,6043" />
      </g>
    </g>
    <g
       id="g2549"
       transform="matrix(0,0.15,0.15,0,-12.933828,-6.1588845)">
      <g
         clip-path="url(#clipPath2553)"
         id="g2551">
        <path
           id="path2557"
           style="fill:none;stroke:#000000;stroke-width:1;stroke-linecap:round;stroke-linejoin:round;stroke-miterlimit:10;stroke-dasharray:none;stroke-opacity:1"
           d="M 1736,1022 L 1736,6043" />
      </g>
    </g>
    <g
       id="g2559"
       transform="matrix(0,0.15,0.15,0,-12.933828,-6.1588845)">
      <g
         clip-path="url(#clipPath2563)"
         id="g2561">
        <path
           id="path2567"
           style="fill:none;stroke:#000000;stroke-width:1;stroke-linecap:round;stroke-linejoin:round;stroke-miterlimit:10;stroke-dasharray:none;stroke-opacity:1"
           d="M 1462,1022 L 1462,6043" />
      </g>
    </g>
    <g
       id="g2569"
       transform="matrix(0,0.15,0.15,0,-12.933828,-6.1588845)">
      <g
         clip-path="url(#clipPath2573)"
         id="g2571">
        <path
           id="path2577"
           style="fill:none;stroke:#000000;stroke-width:1;stroke-linecap:round;stroke-linejoin:round;stroke-miterlimit:10;stroke-dasharray:none;stroke-opacity:1"
           d="M 1187,1022 L 1187,6043" />
      </g>
    </g>
    <path
       id="path2579"
       style="fill:none;stroke:#808080;stroke-width:1.20000005;stroke-linecap:round;stroke-linejoin:miter;stroke-miterlimit:10;stroke-dasharray:none;stroke-opacity:1"
       d="M 140.36617,171.89112 L 140.36617,583.79112 L 893.51617,583.79112 L 893.51617,171.89112 L 140.36617,171.89112 z" />
    <g
       id="g2581"
       transform="matrix(0,0.15,0.15,0,-12.933828,-6.1588845)">
      <g
         clip-path="url(#clipPath2585)"
         id="g2583">
        <path
           id="path2589"
           style="fill:#0000ff;fill-opacity:1;fill-rule:evenodd;stroke:none"
           d="M 1388,1440 L 3933,1440 L 3933,1997 L 1388,1997 L 1388,1440 z" />
        <path
           id="path2591"
           style="fill:none;stroke:#000000;stroke-width:8;stroke-linecap:round;stroke-linejoin:miter;stroke-miterlimit:10;stroke-dasharray:none;stroke-opacity:1"
           d="M 1388,1440 L 3933,1440 L 3933,1997 L 1388,1997 L 1388,1440 z" />
      </g>
    </g>
    <g
       id="g2593"
       transform="matrix(0,0.15,0.15,0,-12.933828,-6.1588845)">
      <g
         clip-path="url(#clipPath2597)"
         id="g2595">
        <path
           id="path2601"
           style="fill:#0000ff;fill-opacity:1;fill-rule:evenodd;stroke:none"
           d="M 1474,3951 L 3933,3951 L 3933,4508 L 1474,4508 L 1474,3951 z" />
        <path
           id="path2603"
           style="fill:none;stroke:#000000;stroke-width:8;stroke-linecap:round;stroke-linejoin:miter;stroke-miterlimit:10;stroke-dasharray:none;stroke-opacity:1"
           d="M 1474,3951 L 3933,3951 L 3933,4508 L 1474,4508 L 1474,3951 z" />
      </g>
    </g>
    <g
       id="g2605"
       transform="matrix(0,0.15,0.15,0,-12.933828,-6.1588845)">
      <g
         clip-path="url(#clipPath2609)"
         id="g2607">
        <path
           id="path2613"
           style="fill:#32cccc;fill-opacity:1;fill-rule:evenodd;stroke:none"
           d="M 1505,1998 L 3933,1998 L 3933,2555 L 1505,2555 L 1505,1998 z" />
        <path
           id="path2615"
           style="fill:none;stroke:#000000;stroke-width:8;stroke-linecap:round;stroke-linejoin:miter;stroke-miterlimit:10;stroke-dasharray:none;stroke-opacity:1"
           d="M 1505,1998 L 3933,1998 L 3933,2555 L 1505,2555 L 1505,1998 z" />
      </g>
    </g>
    <g
       id="g2617"
       transform="matrix(0,0.15,0.15,0,-12.933828,-6.1588845)">
      <g
         clip-path="url(#clipPath2621)"
         id="g2619">
        <path
           id="path2625"
           style="fill:#32cccc;fill-opacity:1;fill-rule:evenodd;stroke:none"
           d="M 1630,4509 L 3933,4509 L 3933,5065 L 1630,5065 L 1630,4509 z" />
        <path
           id="path2627"
           style="fill:none;stroke:#000000;stroke-width:8;stroke-linecap:round;stroke-linejoin:miter;stroke-miterlimit:10;stroke-dasharray:none;stroke-opacity:1"
           d="M 1630,4509 L 3933,4509 L 3933,5065 L 1630,5065 L 1630,4509 z" />
      </g>
    </g>
    <g
       id="g2629"
       transform="matrix(0,0.15,0.15,0,-12.933828,-6.1588845)">
      <g
         clip-path="url(#clipPath2633)"
         id="g2631">
        <path
           id="path2637"
           style="fill:#ffffcc;fill-opacity:1;fill-rule:evenodd;stroke:none"
           d="M 1507,2556 L 3933,2556 L 3933,3113 L 1507,3113 L 1507,2556 z" />
        <path
           id="path2639"
           style="fill:none;stroke:#000000;stroke-width:8;stroke-linecap:round;stroke-linejoin:miter;stroke-miterlimit:10;stroke-dasharray:none;stroke-opacity:1"
           d="M 1507,2556 L 3933,2556 L 3933,3113 L 1507,3113 L 1507,2556 z" />
      </g>
    </g>
    <g
       id="g2641"
       transform="matrix(0,0.15,0.15,0,-12.933828,-6.1588845)">
      <g
         clip-path="url(#clipPath2645)"
         id="g2643">
        <path
           id="path2649"
           style="fill:#ffffcc;fill-opacity:1;fill-rule:evenodd;stroke:none"
           d="M 1558,5066 L 3933,5066 L 3933,5623 L 1558,5623 L 1558,5066 z" />
        <path
           id="path2651"
           style="fill:none;stroke:#000000;stroke-width:8;stroke-linecap:round;stroke-linejoin:miter;stroke-miterlimit:10;stroke-dasharray:none;stroke-opacity:1"
           d="M 1558,5066 L 3933,5066 L 3933,5623 L 1558,5623 L 1558,5066 z" />
      </g>
    </g>
    <path
       id="path2653"
       style="fill:none;stroke:#000000;stroke-width:1.20000005;stroke-linecap:round;stroke-linejoin:round;stroke-miterlimit:10;stroke-dasharray:none;stroke-opacity:1"
       d="M 244.91617,202.04112 L 244.91617,179.39112" />
    <path
       id="path2655"
       style="fill:none;stroke:#000000;stroke-width:1.20000005;stroke-linecap:round;stroke-linejoin:round;stroke-miterlimit:10;stroke-dasharray:none;stroke-opacity:1"
       d="M 241.76617,179.39112 L 248.21617,179.39112" />
    <path
       id="path2657"
       style="fill:none;stroke:#000000;stroke-width:1.20000005;stroke-linecap:round;stroke-linejoin:round;stroke-miterlimit:10;stroke-dasharray:none;stroke-opacity:1"
       d="M 621.56617,214.94112 L 621.56617,183.59112" />
    <path
       id="path2659"
       style="fill:none;stroke:#000000;stroke-width:1.20000005;stroke-linecap:round;stroke-linejoin:round;stroke-miterlimit:10;stroke-dasharray:none;stroke-opacity:1"
       d="M 618.41617,183.59112 L 624.86617,183.59112" />
    <path
       id="path2661"
       style="fill:none;stroke:#000000;stroke-width:1.20000005;stroke-linecap:round;stroke-linejoin:round;stroke-miterlimit:10;stroke-dasharray:none;stroke-opacity:1"
       d="M 244.91617,202.04112 L 244.91617,224.84112" />
    <path
       id="path2663"
       style="fill:none;stroke:#000000;stroke-width:1.20000005;stroke-linecap:round;stroke-linejoin:round;stroke-miterlimit:10;stroke-dasharray:none;stroke-opacity:1"
       d="M 241.76617,224.84112 L 248.21617,224.84112" />
    <path
       id="path2665"
       style="fill:none;stroke:#000000;stroke-width:1.20000005;stroke-linecap:round;stroke-linejoin:round;stroke-miterlimit:10;stroke-dasharray:none;stroke-opacity:1"
       d="M 621.56617,214.94112 L 621.56617,246.14112" />
    <path
       id="path2667"
       style="fill:none;stroke:#000000;stroke-width:1.20000005;stroke-linecap:round;stroke-linejoin:round;stroke-miterlimit:10;stroke-dasharray:none;stroke-opacity:1"
       d="M 618.41617,246.14112 L 624.86617,246.14112" />
    <path
       id="path2669"
       style="fill:none;stroke:#000000;stroke-width:1.20000005;stroke-linecap:round;stroke-linejoin:round;stroke-miterlimit:10;stroke-dasharray:none;stroke-opacity:1"
       d="M 328.61617,219.59112 L 328.61617,201.44112" />
    <path
       id="path2671"
       style="fill:none;stroke:#000000;stroke-width:1.20000005;stroke-linecap:round;stroke-linejoin:round;stroke-miterlimit:10;stroke-dasharray:none;stroke-opacity:1"
       d="M 325.46617,201.44112 L 331.91617,201.44112" />
    <path
       id="path2673"
       style="fill:none;stroke:#000000;stroke-width:1.20000005;stroke-linecap:round;stroke-linejoin:round;stroke-miterlimit:10;stroke-dasharray:none;stroke-opacity:1"
       d="M 705.11617,238.34112 L 705.11617,204.59112" />
    <path
       id="path2675"
       style="fill:none;stroke:#000000;stroke-width:1.20000005;stroke-linecap:round;stroke-linejoin:round;stroke-miterlimit:10;stroke-dasharray:none;stroke-opacity:1"
       d="M 701.96617,204.59112 L 708.41617,204.59112" />
    <path
       id="path2677"
       style="fill:none;stroke:#000000;stroke-width:1.20000005;stroke-linecap:round;stroke-linejoin:round;stroke-miterlimit:10;stroke-dasharray:none;stroke-opacity:1"
       d="M 328.61617,219.59112 L 328.61617,237.59112" />
    <path
       id="path2679"
       style="fill:none;stroke:#000000;stroke-width:1.20000005;stroke-linecap:round;stroke-linejoin:round;stroke-miterlimit:10;stroke-dasharray:none;stroke-opacity:1"
       d="M 325.46617,237.59112 L 331.91617,237.59112" />
    <path
       id="path2681"
       style="fill:none;stroke:#000000;stroke-width:1.20000005;stroke-linecap:round;stroke-linejoin:round;stroke-miterlimit:10;stroke-dasharray:none;stroke-opacity:1"
       d="M 705.11617,238.34112 L 705.11617,271.94112" />
    <path
       id="path2683"
       style="fill:none;stroke:#000000;stroke-width:1.20000005;stroke-linecap:round;stroke-linejoin:round;stroke-miterlimit:10;stroke-dasharray:none;stroke-opacity:1"
       d="M 701.96617,271.94112 L 708.41617,271.94112" />
    <path
       id="path2685"
       style="fill:none;stroke:#000000;stroke-width:1.20000005;stroke-linecap:round;stroke-linejoin:round;stroke-miterlimit:10;stroke-dasharray:none;stroke-opacity:1"
       d="M 412.31617,219.89112 L 412.31617,196.64112" />
    <path
       id="path2687"
       style="fill:none;stroke:#000000;stroke-width:1.20000005;stroke-linecap:round;stroke-linejoin:round;stroke-miterlimit:10;stroke-dasharray:none;stroke-opacity:1"
       d="M 409.16617,196.64112 L 415.61617,196.64112" />
    <path
       id="path2689"
       style="fill:none;stroke:#000000;stroke-width:1.20000005;stroke-linecap:round;stroke-linejoin:round;stroke-miterlimit:10;stroke-dasharray:none;stroke-opacity:1"
       d="M 788.81617,227.54112 L 788.81617,202.34112" />
    <path
       id="path2691"
       style="fill:none;stroke:#000000;stroke-width:1.20000005;stroke-linecap:round;stroke-linejoin:round;stroke-miterlimit:10;stroke-dasharray:none;stroke-opacity:1"
       d="M 785.66617,202.34112 L 792.11617,202.34112" />
    <path
       id="path2693"
       style="fill:none;stroke:#000000;stroke-width:1.20000005;stroke-linecap:round;stroke-linejoin:round;stroke-miterlimit:10;stroke-dasharray:none;stroke-opacity:1"
       d="M 412.31617,219.89112 L 412.31617,243.14112" />
    <path
       id="path2695"
       style="fill:none;stroke:#000000;stroke-width:1.20000005;stroke-linecap:round;stroke-linejoin:round;stroke-miterlimit:10;stroke-dasharray:none;stroke-opacity:1"
       d="M 409.16617,243.14112 L 415.61617,243.14112" />
    <path
       id="path2697"
       style="fill:none;stroke:#000000;stroke-width:1.20000005;stroke-linecap:round;stroke-linejoin:round;stroke-miterlimit:10;stroke-dasharray:none;stroke-opacity:1"
       d="M 788.81617,227.54112 L 788.81617,252.89112" />
    <path
       id="path2699"
       style="fill:none;stroke:#000000;stroke-width:1.20000005;stroke-linecap:round;stroke-linejoin:round;stroke-miterlimit:10;stroke-dasharray:none;stroke-opacity:1"
       d="M 785.66617,252.89112 L 792.11617,252.89112" />
    <path
       id="path2701"
       style="fill:none;stroke:#000000;stroke-width:0.15000001;stroke-linecap:round;stroke-linejoin:round;stroke-miterlimit:10;stroke-dasharray:none;stroke-opacity:1"
       d="M 140.36617,583.79112 L 893.51617,583.79112" />
    <path
       id="path2703"
       style="fill:none;stroke:#000000;stroke-width:0.15000001;stroke-linecap:round;stroke-linejoin:round;stroke-miterlimit:10;stroke-dasharray:none;stroke-opacity:1"
       d="M 140.36617,593.39112 L 140.36617,583.79112" />
    <path
       id="path2705"
       style="fill:none;stroke:#000000;stroke-width:0.15000001;stroke-linecap:round;stroke-linejoin:round;stroke-miterlimit:10;stroke-dasharray:none;stroke-opacity:1"
       d="M 517.01617,593.39112 L 517.01617,583.79112" />
    <path
       id="path2707"
       style="fill:none;stroke:#000000;stroke-width:0.15000001;stroke-linecap:round;stroke-linejoin:round;stroke-miterlimit:10;stroke-dasharray:none;stroke-opacity:1"
       d="M 893.51617,593.39112 L 893.51617,583.79112" />
    <g
       transform="matrix(0,1.2499995,1.2499995,0,-12.933828,-6.1588845)"
       id="g2709">
      <text
         id="text2711"
         transform="matrix(0,1,0.9981036,0,480.36,90)">
        <tspan
           id="tspan2713"
           y="0"
           x="0"
           style="font-size:24.76696777px;font-variant:normal;font-weight:normal;writing-mode:lr-tb;fill:#000000;fill-opacity:1;fill-rule:nonzero;stroke:none;font-family:Helvetica;-inkscape-font-specification:Helvetica">0</tspan>
        <tspan
           id="tspan2715"
           sodipodi:role="line"
           y="-33.062698"
           x="-20.640041 -6.8400102 1.71e-006"
           style="font-size:24.76696777px;font-variant:normal;font-weight:normal;writing-mode:lr-tb;fill:#000000;fill-opacity:1;fill-rule:nonzero;stroke:none;font-family:Helvetica;-inkscape-font-specification:Helvetica">0.1</tspan>
        <tspan
           id="tspan2717"
           sodipodi:role="line"
           y="-66.005173"
           x="-20.640041 -6.8400102 1.71e-006"
           style="font-size:24.76696777px;font-variant:normal;font-weight:normal;writing-mode:lr-tb;fill:#000000;fill-opacity:1;fill-rule:nonzero;stroke:none;font-family:Helvetica;-inkscape-font-specification:Helvetica">0.2</tspan>
        <tspan
           id="tspan2719"
           sodipodi:role="line"
           y="-99.067871"
           x="-20.640041 -6.8400102 1.71e-006"
           style="font-size:24.76696777px;font-variant:normal;font-weight:normal;writing-mode:lr-tb;fill:#000000;fill-opacity:1;fill-rule:nonzero;stroke:none;font-family:Helvetica;-inkscape-font-specification:Helvetica">0.3</tspan>
        <tspan
           id="tspan2721"
           sodipodi:role="line"
           y="-132.01035"
           x="-20.640041 -6.8400102 1.71e-006"
           style="font-size:24.76696777px;font-variant:normal;font-weight:normal;writing-mode:lr-tb;fill:#000000;fill-opacity:1;fill-rule:nonzero;stroke:none;font-family:Helvetica;-inkscape-font-specification:Helvetica">0.4</tspan>
        <tspan
           id="tspan2723"
           sodipodi:role="line"
           y="-165.07304"
           x="-20.640041 -6.8400102 1.71e-006"
           style="font-size:24.76696777px;font-variant:normal;font-weight:normal;writing-mode:lr-tb;fill:#000000;fill-opacity:1;fill-rule:nonzero;stroke:none;font-family:Helvetica;-inkscape-font-specification:Helvetica">0.5</tspan>
        <tspan
           id="tspan2725"
           sodipodi:role="line"
           y="-198.13574"
           x="-20.640041 -6.8400102 1.71e-006"
           style="font-size:24.76696777px;font-variant:normal;font-weight:normal;writing-mode:lr-tb;fill:#000000;fill-opacity:1;fill-rule:nonzero;stroke:none;font-family:Helvetica;-inkscape-font-specification:Helvetica">0.6</tspan>
        <tspan
           id="tspan2727"
           sodipodi:role="line"
           y="-231.07822"
           x="-20.640041 -6.8400102 1.71e-006"
           style="font-size:24.76696777px;font-variant:normal;font-weight:normal;writing-mode:lr-tb;fill:#000000;fill-opacity:1;fill-rule:nonzero;stroke:none;font-family:Helvetica;-inkscape-font-specification:Helvetica">0.7</tspan>
        <tspan
           id="tspan2729"
           sodipodi:role="line"
           y="-264.14093"
           x="-20.640041 -6.8400102 1.71e-006"
           style="font-size:24.76696777px;font-variant:normal;font-weight:normal;writing-mode:lr-tb;fill:#000000;fill-opacity:1;fill-rule:nonzero;stroke:none;font-family:Helvetica;-inkscape-font-specification:Helvetica">0.8</tspan>
        <tspan
           id="tspan2731"
           sodipodi:role="line"
           y="-297.0834"
           x="-20.640041 -6.8400102 1.71e-006"
           style="font-size:24.76696777px;font-variant:normal;font-weight:normal;writing-mode:lr-tb;fill:#000000;fill-opacity:1;fill-rule:nonzero;stroke:none;font-family:Helvetica;-inkscape-font-specification:Helvetica">0.9</tspan>
        <tspan
           id="tspan2733"
           y="-330.14609"
           x="0"
           style="font-size:24.76696777px;font-variant:normal;font-weight:normal;writing-mode:lr-tb;fill:#000000;fill-opacity:1;fill-rule:nonzero;stroke:none;font-family:Helvetica;-inkscape-font-specification:Helvetica">1</tspan>
        <tspan
           id="tspan2735"
           sodipodi:role="line"
           y="35.347031"
           x="84.960121 101.40015 113.76018 127.5602 134.40021 148.20024 155.04025 170.16026 183.9603 196.32031 203.16032 210.00034 216.84035 234.72037 248.52039 254.04039 259.56039 273.36041 384.24066 400.68069 413.04074 426.84076 433.68079 447.4808 454.32086 469.44089 483.24091 495.60095 502.44098 509.28104 516.12109 522.96112 543.60114 557.40118 571.20117"
           style="font-size:24.76696777px;font-variant:normal;font-weight:normal;writing-mode:lr-tb;fill:#000000;fill-opacity:1;fill-rule:nonzero;stroke:none;font-family:Helvetica;-inkscape-font-specification:Helvetica">Synth Test: DollarSynth Test: Image</tspan>
      </text>
    </g>
    <path
       id="path2737"
       style="fill:#ffffff;fill-opacity:1;fill-rule:nonzero;stroke:none"
       d="M 213.11617,92.541115 L 213.11617,136.79112 L 820.61617,136.79112 L 820.61617,92.541115 L 213.11617,92.541115 z" />
    <path
       id="path2739"
       style="fill:none;stroke:#000000;stroke-width:0.15000001;stroke-linecap:round;stroke-linejoin:round;stroke-miterlimit:10;stroke-dasharray:none;stroke-opacity:1"
       d="M 212.96617,92.391115 L 212.96617,136.79112 L 820.61617,136.79112 L 820.61617,92.391115 L 212.96617,92.391115 z" />
    <path
       id="path2741"
       style="fill:#0000ff;fill-opacity:1;fill-rule:evenodd;stroke:none"
       d="M 222.26617,106.34112 L 222.26617,127.34112 L 243.26617,127.34112 L 243.26617,106.34112 L 222.26617,106.34112 z" />
    <path
       id="path2743"
       style="fill:none;stroke:#000000;stroke-width:1.20000005;stroke-linecap:round;stroke-linejoin:miter;stroke-miterlimit:10;stroke-dasharray:none;stroke-opacity:1"
       d="M 222.26617,106.34112 L 222.26617,127.34112 L 243.26617,127.34112 L 243.26617,106.34112 L 222.26617,106.34112 z" />
    <g
       transform="matrix(0,1.2499995,1.2499995,0,-12.933828,-6.1588845)"
       id="g2745">
      <text
         id="text2747"
         transform="matrix(0,1,0.9981036,0,107.28,211.44)">
        <tspan
           id="tspan2749"
           sodipodi:role="line"
           y="0"
           x="0 18.360088 32.160149 47.400238 55.080265 70.320351 78.000381 94.800476 103.92051 119.1606 125.28062"
           style="font-size:27.5322113px;font-variant:normal;font-weight:normal;writing-mode:lr-tb;fill:#000000;fill-opacity:1;fill-rule:nonzero;stroke:none;font-family:Helvetica;-inkscape-font-specification:Helvetica">Synth Train</tspan>
      </text>
    </g>
    <path
       id="path2751"
       style="fill:#32cccc;fill-opacity:1;fill-rule:evenodd;stroke:none"
       d="M 440.51617,106.34112 L 440.51617,127.34112 L 461.51617,127.34112 L 461.51617,106.34112 L 440.51617,106.34112 z" />
    <path
       id="path2753"
       style="fill:none;stroke:#000000;stroke-width:1.20000005;stroke-linecap:round;stroke-linejoin:miter;stroke-miterlimit:10;stroke-dasharray:none;stroke-opacity:1"
       d="M 440.51617,106.34112 L 440.51617,127.34112 L 461.51617,127.34112 L 461.51617,106.34112 L 440.51617,106.34112 z" />
    <g
       transform="matrix(0,1.2499995,1.2499995,0,-12.933828,-6.1588845)"
       id="g2755">
      <text
         id="text2757"
         transform="matrix(0,1,0.9981036,0,107.28,386.04)">
        <tspan
           id="tspan2759"
           sodipodi:role="line"
           y="0"
           x="0 19.800093 35.04018 50.280266 64.08033 71.760361 88.560448 97.680481 112.92054 119.04054"
           style="font-size:27.5322113px;font-variant:normal;font-weight:normal;writing-mode:lr-tb;fill:#000000;fill-opacity:1;fill-rule:nonzero;stroke:none;font-family:Helvetica;-inkscape-font-specification:Helvetica">Copy Train</tspan>
      </text>
    </g>
    <path
       id="path2761"
       style="fill:#ffffcc;fill-opacity:1;fill-rule:evenodd;stroke:none"
       d="M 650.96617,106.34112 L 650.96617,127.34112 L 671.96617,127.34112 L 671.96617,106.34112 L 650.96617,106.34112 z" />
    <path
       id="path2763"
       style="fill:none;stroke:#000000;stroke-width:1.20000005;stroke-linecap:round;stroke-linejoin:miter;stroke-miterlimit:10;stroke-dasharray:none;stroke-opacity:1"
       d="M 650.96617,106.34112 L 650.96617,127.34112 L 671.96617,127.34112 L 671.96617,106.34112 L 650.96617,106.34112 z" />
    <g
       transform="matrix(0,1.2499995,1.2499995,0,-12.933828,-6.1588845)"
       id="g2765">
      <text
         id="text2767"
         transform="matrix(0,1,0.9981036,0,107.28,554.4)">
        <tspan
           id="tspan2769"
           sodipodi:role="line"
           y="0"
           x="0 7.6800294 21.48012 36.720177 44.400208 61.200298 70.320358 85.560417 91.68042"
           style="font-size:27.5322113px;font-variant:normal;font-weight:normal;writing-mode:lr-tb;fill:#000000;fill-opacity:1;fill-rule:nonzero;stroke:none;font-family:Helvetica;-inkscape-font-specification:Helvetica">Iso Train</tspan>
      </text>
    </g>
  </g>
</svg>
