<?xml version="1.0" encoding="UTF-8" standalone="no"?>
<!-- Created with Inkscape (http://www.inkscape.org/) -->
<svg
   xmlns:dc="http://purl.org/dc/elements/1.1/"
   xmlns:cc="http://creativecommons.org/ns#"
   xmlns:rdf="http://www.w3.org/1999/02/22-rdf-syntax-ns#"
   xmlns:svg="http://www.w3.org/2000/svg"
   xmlns="http://www.w3.org/2000/svg"
   xmlns:sodipodi="http://sodipodi.sourceforge.net/DTD/sodipodi-0.dtd"
   xmlns:inkscape="http://www.inkscape.org/namespaces/inkscape"
   id="svg3049"
   sodipodi:version="0.32"
   inkscape:version="0.46"
   width="990"
   height="765"
   xml:space="preserve"
   sodipodi:docname="image_summary.svg"
   inkscape:output_extension="org.inkscape.output.svg.inkscape"><metadata
     id="metadata3054"><rdf:RDF><cc:Work
         rdf:about=""><dc:format>image/svg+xml</dc:format><dc:type
           rdf:resource="http://purl.org/dc/dcmitype/StillImage" /></cc:Work></rdf:RDF></metadata><defs
     id="defs3052"><inkscape:perspective
       sodipodi:type="inkscape:persp3d"
       inkscape:vp_x="0 : 526.18109 : 1"
       inkscape:vp_y="0 : 1000 : 0"
       inkscape:vp_z="744.09448 : 526.18109 : 1"
       inkscape:persp3d-origin="372.04724 : 350.78739 : 1"
       id="perspective3056" /><clipPath
       clipPathUnits="userSpaceOnUse"
       id="clipPath3068"><path
         d="M 3376,1076 L 3376,5994 L 3377,5994 L 3377,1076 L 3376,1076 z"
         id="path3070" /></clipPath><clipPath
       clipPathUnits="userSpaceOnUse"
       id="clipPath3078"><path
         d="M 2849,1076 L 2849,5994 L 2850,5994 L 2850,1076 L 2849,1076 z"
         id="path3080" /></clipPath><clipPath
       clipPathUnits="userSpaceOnUse"
       id="clipPath3088"><path
         d="M 2323,1076 L 2323,5994 L 2324,5994 L 2324,1076 L 2323,1076 z"
         id="path3090" /></clipPath><clipPath
       clipPathUnits="userSpaceOnUse"
       id="clipPath3098"><path
         d="M 1796,1076 L 1796,5994 L 1797,5994 L 1797,1076 L 1796,1076 z"
         id="path3100" /></clipPath><clipPath
       clipPathUnits="userSpaceOnUse"
       id="clipPath3108"><path
         d="M 1269,1076 L 1269,5994 L 1270,5994 L 1270,1076 L 1269,1076 z"
         id="path3110" /></clipPath><clipPath
       clipPathUnits="userSpaceOnUse"
       id="clipPath3122"><path
         d="M 1544,1281 L 1544,1691 L 3903,1691 L 3903,1281 L 1544,1281 z"
         id="path3124" /></clipPath><clipPath
       clipPathUnits="userSpaceOnUse"
       id="clipPath3134"><path
         d="M 1541,2920 L 1541,3330 L 3903,3330 L 3903,2920 L 1541,2920 z"
         id="path3136" /></clipPath><clipPath
       clipPathUnits="userSpaceOnUse"
       id="clipPath3146"><path
         d="M 1582,4560 L 1582,4970 L 3903,4970 L 3903,4560 L 1582,4560 z"
         id="path3148" /></clipPath><clipPath
       clipPathUnits="userSpaceOnUse"
       id="clipPath3156"><path
         d="M 1644,1641 L 1644,2150 L 3903,2150 L 3903,1641 L 1644,1641 z"
         id="path3158" /></clipPath><clipPath
       clipPathUnits="userSpaceOnUse"
       id="clipPath3168"><path
         d="M 1320,3280 L 1320,3790 L 3903,3790 L 3903,3280 L 1320,3280 z"
         id="path3170" /></clipPath><clipPath
       clipPathUnits="userSpaceOnUse"
       id="clipPath3180"><path
         d="M 1497,4920 L 1497,5429 L 3903,5429 L 3903,4920 L 1497,4920 z"
         id="path3182" /></clipPath><clipPath
       clipPathUnits="userSpaceOnUse"
       id="clipPath3192"><path
         d="M 1575,2050 L 1575,2560 L 3903,2560 L 3903,2050 L 1575,2050 z"
         id="path3194" /></clipPath><clipPath
       clipPathUnits="userSpaceOnUse"
       id="clipPath3204"><path
         d="M 1407,3690 L 1407,4200 L 3903,4200 L 3903,3690 L 1407,3690 z"
         id="path3206" /></clipPath><clipPath
       clipPathUnits="userSpaceOnUse"
       id="clipPath3216"><path
         d="M 1374,5329 L 1374,5839 L 3903,5839 L 3903,5329 L 1374,5329 z"
         id="path3218" /></clipPath><clipPath
       clipPathUnits="userSpaceOnUse"
       id="clipPath3256"><path
         d="M 1253,3530 L 1253,3541 L 1376,3541 L 1376,3530 L 1253,3530 z"
         id="path3258" /></clipPath><clipPath
       clipPathUnits="userSpaceOnUse"
       id="clipPath3266"><path
         d="M 1253,3509 L 1253,3563 L 1255,3563 L 1255,3509 L 1253,3509 z"
         id="path3268" /></clipPath></defs><sodipodi:namedview
     inkscape:window-height="669"
     inkscape:window-width="640"
     inkscape:pageshadow="2"
     inkscape:pageopacity="0.0"
     guidetolerance="10.0"
     gridtolerance="10.0"
     objecttolerance="10.0"
     borderopacity="1.0"
     bordercolor="#666666"
     pagecolor="#ffffff"
     id="base"
     showgrid="false"
     inkscape:zoom="0.54949495"
     inkscape:cx="495"
     inkscape:cy="382.5"
     inkscape:window-x="684"
     inkscape:window-y="166"
     inkscape:current-layer="g3058" /><g
     id="g3058"
     inkscape:groupmode="layer"
     inkscape:label="image_summary"
     transform="matrix(0,1.25,1.25,0,0,0)"><path
       id="path3062"
       style="fill:#ffffff;fill-opacity:1;fill-rule:nonzero;stroke:none"
       d="M 75.96,57.96 L 535.2,57.96 L 535.2,733.08 L 75.96,733.08 L 75.96,57.96 z" /><g
       id="g3064"
       transform="scale(0.12,0.12)"><g
         clip-path="url(#clipPath3068)"
         id="g3066"><path
           id="path3072"
           style="fill:none;stroke:#c0c0c0;stroke-width:1;stroke-linecap:round;stroke-linejoin:round;stroke-miterlimit:10;stroke-dasharray:none;stroke-opacity:1"
           d="M 3376,1076 L 3376,5994" /></g></g><g
       id="g3074"
       transform="scale(0.12,0.12)"><g
         clip-path="url(#clipPath3078)"
         id="g3076"><path
           id="path3082"
           style="fill:none;stroke:#c0c0c0;stroke-width:1;stroke-linecap:round;stroke-linejoin:round;stroke-miterlimit:10;stroke-dasharray:none;stroke-opacity:1"
           d="M 2849,1076 L 2849,5994" /></g></g><g
       id="g3084"
       transform="scale(0.12,0.12)"><g
         clip-path="url(#clipPath3088)"
         id="g3086"><path
           id="path3092"
           style="fill:none;stroke:#c0c0c0;stroke-width:1;stroke-linecap:round;stroke-linejoin:round;stroke-miterlimit:10;stroke-dasharray:none;stroke-opacity:1"
           d="M 2323,1076 L 2323,5994" /></g></g><g
       id="g3094"
       transform="scale(0.12,0.12)"><g
         clip-path="url(#clipPath3098)"
         id="g3096"><path
           id="path3102"
           style="fill:none;stroke:#c0c0c0;stroke-width:1;stroke-linecap:round;stroke-linejoin:round;stroke-miterlimit:10;stroke-dasharray:none;stroke-opacity:1"
           d="M 1796,1076 L 1796,5994" /></g></g><g
       id="g3104"
       transform="scale(0.12,0.12)"><g
         clip-path="url(#clipPath3108)"
         id="g3106"><path
           id="path3112"
           style="fill:none;stroke:#c0c0c0;stroke-width:1;stroke-linecap:round;stroke-linejoin:round;stroke-miterlimit:10;stroke-dasharray:none;stroke-opacity:1"
           d="M 1269,1076 L 1269,5994" /></g></g><path
       id="path3114"
       style="fill:none;stroke:#c0c0c0;stroke-width:0.12;stroke-linecap:round;stroke-linejoin:round;stroke-miterlimit:10;stroke-dasharray:none;stroke-opacity:1"
       d="M 152.28,129.12 L 468.36,129.12 L 468.36,719.28 L 152.28,719.28 L 152.28,129.12 z" /><path
       id="path3116"
       style="fill:#0000ff;fill-opacity:1;fill-rule:nonzero;stroke:none"
       d="M 185.4,153.84 L 468.36,153.84 L 468.36,202.8 L 185.4,202.8 L 185.4,153.84 z" /><g
       id="g3118"
       transform="scale(0.12,0.12)"><g
         clip-path="url(#clipPath3122)"
         id="g3120"><path
           id="path3126"
           style="fill:none;stroke:#000000;stroke-width:1;stroke-linecap:round;stroke-linejoin:round;stroke-miterlimit:10;stroke-dasharray:none;stroke-opacity:1"
           d="M 1544,1281 L 3903,1281 L 3903,1690 L 1544,1690 L 1544,1281 z" /></g></g><path
       id="path3128"
       style="fill:#0000ff;fill-opacity:1;fill-rule:nonzero;stroke:none"
       d="M 185.04,350.52 L 468.36,350.52 L 468.36,399.48 L 185.04,399.48 L 185.04,350.52 z" /><g
       id="g3130"
       transform="scale(0.12,0.12)"><g
         clip-path="url(#clipPath3134)"
         id="g3132"><path
           id="path3138"
           style="fill:none;stroke:#000000;stroke-width:1;stroke-linecap:round;stroke-linejoin:round;stroke-miterlimit:10;stroke-dasharray:none;stroke-opacity:1"
           d="M 1541,2920 L 3903,2920 L 3903,3329 L 1541,3329 L 1541,2920 z" /></g></g><path
       id="path3140"
       style="fill:#0000ff;fill-opacity:1;fill-rule:nonzero;stroke:none"
       d="M 189.96,547.32 L 468.36,547.32 L 468.36,596.28 L 189.96,596.28 L 189.96,547.32 z" /><g
       id="g3142"
       transform="scale(0.12,0.12)"><g
         clip-path="url(#clipPath3146)"
         id="g3144"><path
           id="path3150"
           style="fill:none;stroke:#000000;stroke-width:1;stroke-linecap:round;stroke-linejoin:round;stroke-miterlimit:10;stroke-dasharray:none;stroke-opacity:1"
           d="M 1582,4560 L 3903,4560 L 3903,4969 L 1582,4969 L 1582,4560 z" /></g></g><g
       id="g3152"
       transform="scale(0.12,0.12)"><g
         clip-path="url(#clipPath3156)"
         id="g3154"><path
           id="path3160"
           style="fill:#32cccc;fill-opacity:1;fill-rule:evenodd;stroke:none"
           d="M 1694,1691 L 3903,1691 L 3903,2099 L 1694,2099 L 1694,1691 z" /><path
           id="path3162"
           style="fill:none;stroke:#000000;stroke-width:8;stroke-linecap:round;stroke-linejoin:miter;stroke-miterlimit:10;stroke-dasharray:none;stroke-opacity:1"
           d="M 1694,1691 L 3903,1691 L 3903,2099 L 1694,2099 L 1694,1691 z" /></g></g><g
       id="g3164"
       transform="scale(0.12,0.12)"><g
         clip-path="url(#clipPath3168)"
         id="g3166"><path
           id="path3172"
           style="fill:#32cccc;fill-opacity:1;fill-rule:evenodd;stroke:none"
           d="M 1370,3330 L 3903,3330 L 3903,3739 L 1370,3739 L 1370,3330 z" /><path
           id="path3174"
           style="fill:none;stroke:#000000;stroke-width:8;stroke-linecap:round;stroke-linejoin:miter;stroke-miterlimit:10;stroke-dasharray:none;stroke-opacity:1"
           d="M 1370,3330 L 3903,3330 L 3903,3739 L 1370,3739 L 1370,3330 z" /></g></g><g
       id="g3176"
       transform="scale(0.12,0.12)"><g
         clip-path="url(#clipPath3180)"
         id="g3178"><path
           id="path3184"
           style="fill:#32cccc;fill-opacity:1;fill-rule:evenodd;stroke:none"
           d="M 1547,4970 L 3903,4970 L 3903,5378 L 1547,5378 L 1547,4970 z" /><path
           id="path3186"
           style="fill:none;stroke:#000000;stroke-width:8;stroke-linecap:round;stroke-linejoin:miter;stroke-miterlimit:10;stroke-dasharray:none;stroke-opacity:1"
           d="M 1547,4970 L 3903,4970 L 3903,5378 L 1547,5378 L 1547,4970 z" /></g></g><g
       id="g3188"
       transform="scale(0.12,0.12)"><g
         clip-path="url(#clipPath3192)"
         id="g3190"><path
           id="path3196"
           style="fill:#ffffcc;fill-opacity:1;fill-rule:evenodd;stroke:none"
           d="M 1625,2100 L 3903,2100 L 3903,2509 L 1625,2509 L 1625,2100 z" /><path
           id="path3198"
           style="fill:none;stroke:#000000;stroke-width:8;stroke-linecap:round;stroke-linejoin:miter;stroke-miterlimit:10;stroke-dasharray:none;stroke-opacity:1"
           d="M 1625,2100 L 3903,2100 L 3903,2509 L 1625,2509 L 1625,2100 z" /></g></g><g
       id="g3200"
       transform="scale(0.12,0.12)"><g
         clip-path="url(#clipPath3204)"
         id="g3202"><path
           id="path3208"
           style="fill:#ffffcc;fill-opacity:1;fill-rule:evenodd;stroke:none"
           d="M 1457,3740 L 3903,3740 L 3903,4149 L 1457,4149 L 1457,3740 z" /><path
           id="path3210"
           style="fill:none;stroke:#000000;stroke-width:8;stroke-linecap:round;stroke-linejoin:miter;stroke-miterlimit:10;stroke-dasharray:none;stroke-opacity:1"
           d="M 1457,3740 L 3903,3740 L 3903,4149 L 1457,4149 L 1457,3740 z" /></g></g><g
       id="g3212"
       transform="scale(0.12,0.12)"><g
         clip-path="url(#clipPath3216)"
         id="g3214"><path
           id="path3220"
           style="fill:#ffffcc;fill-opacity:1;fill-rule:evenodd;stroke:none"
           d="M 1424,5379 L 3903,5379 L 3903,5788 L 1424,5788 L 1424,5379 z" /><path
           id="path3222"
           style="fill:none;stroke:#000000;stroke-width:8;stroke-linecap:round;stroke-linejoin:miter;stroke-miterlimit:10;stroke-dasharray:none;stroke-opacity:1"
           d="M 1424,5379 L 3903,5379 L 3903,5788 L 1424,5788 L 1424,5379 z" /></g></g><path
       id="path3224"
       style="fill:none;stroke:#000000;stroke-width:0.12;stroke-linecap:round;stroke-linejoin:miter;stroke-miterlimit:10;stroke-dasharray:none;stroke-opacity:1"
       d="M 185.28,178.32 L 161.28,178.32" /><path
       id="path3226"
       style="fill:none;stroke:#000000;stroke-width:0.12;stroke-linecap:round;stroke-linejoin:miter;stroke-miterlimit:10;stroke-dasharray:none;stroke-opacity:1"
       d="M 161.28,175.8 L 161.28,180.96" /><path
       id="path3228"
       style="fill:none;stroke:#000000;stroke-width:0.12;stroke-linecap:round;stroke-linejoin:miter;stroke-miterlimit:10;stroke-dasharray:none;stroke-opacity:1"
       d="M 184.92,375 L 167.4,375" /><path
       id="path3230"
       style="fill:none;stroke:#000000;stroke-width:0.12;stroke-linecap:round;stroke-linejoin:miter;stroke-miterlimit:10;stroke-dasharray:none;stroke-opacity:1"
       d="M 167.4,372.48 L 167.4,377.64" /><path
       id="path3232"
       style="fill:none;stroke:#000000;stroke-width:0.12;stroke-linecap:round;stroke-linejoin:miter;stroke-miterlimit:10;stroke-dasharray:none;stroke-opacity:1"
       d="M 189.84,571.8 L 170.64,571.8" /><path
       id="path3234"
       style="fill:none;stroke:#000000;stroke-width:0.12;stroke-linecap:round;stroke-linejoin:miter;stroke-miterlimit:10;stroke-dasharray:none;stroke-opacity:1"
       d="M 170.64,569.28 L 170.64,574.44" /><path
       id="path3236"
       style="fill:none;stroke:#000000;stroke-width:0.12;stroke-linecap:round;stroke-linejoin:miter;stroke-miterlimit:10;stroke-dasharray:none;stroke-opacity:1"
       d="M 185.28,178.32 L 209.28,178.32" /><path
       id="path3238"
       style="fill:none;stroke:#000000;stroke-width:0.12;stroke-linecap:round;stroke-linejoin:miter;stroke-miterlimit:10;stroke-dasharray:none;stroke-opacity:1"
       d="M 209.28,175.8 L 209.28,180.96" /><path
       id="path3240"
       style="fill:none;stroke:#000000;stroke-width:0.12;stroke-linecap:round;stroke-linejoin:miter;stroke-miterlimit:10;stroke-dasharray:none;stroke-opacity:1"
       d="M 184.92,375 L 202.44,375" /><path
       id="path3242"
       style="fill:none;stroke:#000000;stroke-width:0.12;stroke-linecap:round;stroke-linejoin:miter;stroke-miterlimit:10;stroke-dasharray:none;stroke-opacity:1"
       d="M 202.44,372.48 L 202.44,377.64" /><path
       id="path3244"
       style="fill:none;stroke:#000000;stroke-width:0.12;stroke-linecap:round;stroke-linejoin:miter;stroke-miterlimit:10;stroke-dasharray:none;stroke-opacity:1"
       d="M 189.84,571.8 L 208.92,571.8" /><path
       id="path3246"
       style="fill:none;stroke:#000000;stroke-width:0.12;stroke-linecap:round;stroke-linejoin:miter;stroke-miterlimit:10;stroke-dasharray:none;stroke-opacity:1"
       d="M 208.92,569.28 L 208.92,574.44" /><path
       id="path3248"
       style="fill:none;stroke:#000000;stroke-width:0.95999998;stroke-linecap:round;stroke-linejoin:round;stroke-miterlimit:10;stroke-dasharray:none;stroke-opacity:1"
       d="M 203.28,227.4 L 177.36,227.4" /><path
       id="path3250"
       style="fill:none;stroke:#000000;stroke-width:0.95999998;stroke-linecap:round;stroke-linejoin:round;stroke-miterlimit:10;stroke-dasharray:none;stroke-opacity:1"
       d="M 177.36,224.88 L 177.36,230.04" /><g
       id="g3252"
       transform="scale(0.12,0.12)"><g
         clip-path="url(#clipPath3256)"
         id="g3254"><path
           id="path3260"
           style="fill:none;stroke:#000000;stroke-width:8;stroke-linecap:round;stroke-linejoin:round;stroke-miterlimit:10;stroke-dasharray:none;stroke-opacity:1"
           d="M 1370,3535 L 1249,3535" /></g></g><g
       id="g3262"
       transform="scale(0.12,0.12)"><g
         clip-path="url(#clipPath3266)"
         id="g3264"><path
           id="path3270"
           style="fill:none;stroke:#000000;stroke-width:8;stroke-linecap:round;stroke-linejoin:round;stroke-miterlimit:10;stroke-dasharray:none;stroke-opacity:1"
           d="M 1249,3514 L 1249,3557" /></g></g><path
       id="path3272"
       style="fill:none;stroke:#000000;stroke-width:0.95999998;stroke-linecap:round;stroke-linejoin:round;stroke-miterlimit:10;stroke-dasharray:none;stroke-opacity:1"
       d="M 185.64,620.88 L 172.2,620.88" /><path
       id="path3274"
       style="fill:none;stroke:#000000;stroke-width:0.95999998;stroke-linecap:round;stroke-linejoin:round;stroke-miterlimit:10;stroke-dasharray:none;stroke-opacity:1"
       d="M 172.2,618.36 L 172.2,623.52" /><path
       id="path3276"
       style="fill:none;stroke:#000000;stroke-width:0.95999998;stroke-linecap:round;stroke-linejoin:round;stroke-miterlimit:10;stroke-dasharray:none;stroke-opacity:1"
       d="M 203.28,227.4 L 229.08,227.4" /><path
       id="path3278"
       style="fill:none;stroke:#000000;stroke-width:0.95999998;stroke-linecap:round;stroke-linejoin:round;stroke-miterlimit:10;stroke-dasharray:none;stroke-opacity:1"
       d="M 229.08,224.88 L 229.08,230.04" /><path
       id="path3280"
       style="fill:none;stroke:#000000;stroke-width:0.95999998;stroke-linecap:round;stroke-linejoin:round;stroke-miterlimit:10;stroke-dasharray:none;stroke-opacity:1"
       d="M 164.4,424.2 L 178.92,424.2" /><path
       id="path3282"
       style="fill:none;stroke:#000000;stroke-width:0.95999998;stroke-linecap:round;stroke-linejoin:round;stroke-miterlimit:10;stroke-dasharray:none;stroke-opacity:1"
       d="M 178.92,421.68 L 178.92,426.84" /><path
       id="path3284"
       style="fill:none;stroke:#000000;stroke-width:0.95999998;stroke-linecap:round;stroke-linejoin:round;stroke-miterlimit:10;stroke-dasharray:none;stroke-opacity:1"
       d="M 185.64,620.88 L 199.08,620.88" /><path
       id="path3286"
       style="fill:none;stroke:#000000;stroke-width:0.95999998;stroke-linecap:round;stroke-linejoin:round;stroke-miterlimit:10;stroke-dasharray:none;stroke-opacity:1"
       d="M 199.08,618.36 L 199.08,623.52" /><path
       id="path3288"
       style="fill:none;stroke:#000000;stroke-width:0.95999998;stroke-linecap:round;stroke-linejoin:round;stroke-miterlimit:10;stroke-dasharray:none;stroke-opacity:1"
       d="M 195,276.6 L 175.68,276.6" /><path
       id="path3290"
       style="fill:none;stroke:#000000;stroke-width:0.95999998;stroke-linecap:round;stroke-linejoin:round;stroke-miterlimit:10;stroke-dasharray:none;stroke-opacity:1"
       d="M 175.68,274.08 L 175.68,279.24" /><path
       id="path3292"
       style="fill:none;stroke:#000000;stroke-width:0.95999998;stroke-linecap:round;stroke-linejoin:round;stroke-miterlimit:10;stroke-dasharray:none;stroke-opacity:1"
       d="M 174.84,473.4 L 163.92,473.4" /><path
       id="path3294"
       style="fill:none;stroke:#000000;stroke-width:0.95999998;stroke-linecap:round;stroke-linejoin:round;stroke-miterlimit:10;stroke-dasharray:none;stroke-opacity:1"
       d="M 163.92,470.88 L 163.92,476.04" /><path
       id="path3296"
       style="fill:none;stroke:#000000;stroke-width:0.95999998;stroke-linecap:round;stroke-linejoin:round;stroke-miterlimit:10;stroke-dasharray:none;stroke-opacity:1"
       d="M 170.88,670.08 L 161.52,670.08" /><path
       id="path3298"
       style="fill:none;stroke:#000000;stroke-width:0.95999998;stroke-linecap:round;stroke-linejoin:round;stroke-miterlimit:10;stroke-dasharray:none;stroke-opacity:1"
       d="M 161.52,667.56 L 161.52,672.72" /><path
       id="path3300"
       style="fill:none;stroke:#000000;stroke-width:0.95999998;stroke-linecap:round;stroke-linejoin:round;stroke-miterlimit:10;stroke-dasharray:none;stroke-opacity:1"
       d="M 195,276.6 L 214.44,276.6" /><path
       id="path3302"
       style="fill:none;stroke:#000000;stroke-width:0.95999998;stroke-linecap:round;stroke-linejoin:round;stroke-miterlimit:10;stroke-dasharray:none;stroke-opacity:1"
       d="M 214.44,274.08 L 214.44,279.24" /><path
       id="path3304"
       style="fill:none;stroke:#000000;stroke-width:0.95999998;stroke-linecap:round;stroke-linejoin:round;stroke-miterlimit:10;stroke-dasharray:none;stroke-opacity:1"
       d="M 174.84,473.4 L 185.88,473.4" /><path
       id="path3306"
       style="fill:none;stroke:#000000;stroke-width:0.95999998;stroke-linecap:round;stroke-linejoin:round;stroke-miterlimit:10;stroke-dasharray:none;stroke-opacity:1"
       d="M 185.88,470.88 L 185.88,476.04" /><path
       id="path3308"
       style="fill:none;stroke:#000000;stroke-width:0.95999998;stroke-linecap:round;stroke-linejoin:round;stroke-miterlimit:10;stroke-dasharray:none;stroke-opacity:1"
       d="M 170.88,670.08 L 180.36,670.08" /><path
       id="path3310"
       style="fill:none;stroke:#000000;stroke-width:0.95999998;stroke-linecap:round;stroke-linejoin:round;stroke-miterlimit:10;stroke-dasharray:none;stroke-opacity:1"
       d="M 180.36,667.56 L 180.36,672.72" /><path
       id="path3312"
       style="fill:none;stroke:#c0c0c0;stroke-width:0.12;stroke-linecap:round;stroke-linejoin:round;stroke-miterlimit:10;stroke-dasharray:none;stroke-opacity:1"
       d="M 152.28,129.12 L 468.36,129.12" /><path
       id="path3314"
       style="fill:none;stroke:#c0c0c0;stroke-width:0.12;stroke-linecap:round;stroke-linejoin:round;stroke-miterlimit:10;stroke-dasharray:none;stroke-opacity:1"
       d="M 468.36,119.4 L 468.36,129.12" /><path
       id="path3316"
       style="fill:none;stroke:#c0c0c0;stroke-width:0.12;stroke-linecap:round;stroke-linejoin:round;stroke-miterlimit:10;stroke-dasharray:none;stroke-opacity:1"
       d="M 405.12,119.4 L 405.12,129.12" /><path
       id="path3318"
       style="fill:none;stroke:#c0c0c0;stroke-width:0.12;stroke-linecap:round;stroke-linejoin:round;stroke-miterlimit:10;stroke-dasharray:none;stroke-opacity:1"
       d="M 341.88,119.4 L 341.88,129.12" /><path
       id="path3320"
       style="fill:none;stroke:#c0c0c0;stroke-width:0.12;stroke-linecap:round;stroke-linejoin:round;stroke-miterlimit:10;stroke-dasharray:none;stroke-opacity:1"
       d="M 278.76,119.4 L 278.76,129.12" /><path
       id="path3322"
       style="fill:none;stroke:#c0c0c0;stroke-width:0.12;stroke-linecap:round;stroke-linejoin:round;stroke-miterlimit:10;stroke-dasharray:none;stroke-opacity:1"
       d="M 215.52,119.4 L 215.52,129.12" /><path
       id="path3324"
       style="fill:none;stroke:#c0c0c0;stroke-width:0.12;stroke-linecap:round;stroke-linejoin:round;stroke-miterlimit:10;stroke-dasharray:none;stroke-opacity:1"
       d="M 152.28,119.4 L 152.28,129.12" /><path
       id="path3326"
       style="fill:none;stroke:#c0c0c0;stroke-width:0.12;stroke-linecap:round;stroke-linejoin:round;stroke-miterlimit:10;stroke-dasharray:none;stroke-opacity:1"
       d="M 468.36,129.12 L 468.36,719.28" /><path
       id="path3328"
       style="fill:none;stroke:#c0c0c0;stroke-width:0.12;stroke-linecap:round;stroke-linejoin:round;stroke-miterlimit:10;stroke-dasharray:none;stroke-opacity:1"
       d="M 478.08,129.12 L 468.36,129.12" /><path
       id="path3330"
       style="fill:none;stroke:#c0c0c0;stroke-width:0.12;stroke-linecap:round;stroke-linejoin:round;stroke-miterlimit:10;stroke-dasharray:none;stroke-opacity:1"
       d="M 478.08,325.8 L 468.36,325.8" /><path
       id="path3332"
       style="fill:none;stroke:#c0c0c0;stroke-width:0.12;stroke-linecap:round;stroke-linejoin:round;stroke-miterlimit:10;stroke-dasharray:none;stroke-opacity:1"
       d="M 478.08,522.6 L 468.36,522.6" /><path
       id="path3334"
       style="fill:none;stroke:#c0c0c0;stroke-width:0.12;stroke-linecap:round;stroke-linejoin:round;stroke-miterlimit:10;stroke-dasharray:none;stroke-opacity:1"
       d="M 478.08,719.28 L 468.36,719.28" /><g
       id="g3336"><text
         id="text3338"
         transform="matrix(0,1,0.9981235,0,466.8,63.48)"><tspan
           id="tspan3340"
           sodipodi:role="line"
           y="0"
           x="0 9.7199736 14.519963 24.239937 33.959911"
           style="font-size:17.43271255px;font-variant:normal;font-weight:normal;writing-mode:lr-tb;fill:#000000;fill-opacity:1;fill-rule:nonzero;stroke:none;font-family:Helvetica;-inkscape-font-specification:Helvetica">0.000</tspan><tspan
           id="tspan3342"
           sodipodi:role="line"
           y="-63.358891"
           x="0 9.7199736 14.519963 24.239937 33.959911"
           style="font-size:17.43271255px;font-variant:normal;font-weight:normal;writing-mode:lr-tb;fill:#000000;fill-opacity:1;fill-rule:nonzero;stroke:none;font-family:Helvetica;-inkscape-font-specification:Helvetica">0.200</tspan><tspan
           id="tspan3344"
           sodipodi:role="line"
           y="-126.71778"
           x="0 9.7199736 14.519963 24.239937 33.959911"
           style="font-size:17.43271255px;font-variant:normal;font-weight:normal;writing-mode:lr-tb;fill:#000000;fill-opacity:1;fill-rule:nonzero;stroke:none;font-family:Helvetica;-inkscape-font-specification:Helvetica">0.400</tspan><tspan
           id="tspan3346"
           sodipodi:role="line"
           y="-189.95645"
           x="0 9.7199736 14.519963 24.239937 33.959911"
           style="font-size:17.43271255px;font-variant:normal;font-weight:normal;writing-mode:lr-tb;fill:#000000;fill-opacity:1;fill-rule:nonzero;stroke:none;font-family:Helvetica;-inkscape-font-specification:Helvetica">0.600</tspan><tspan
           id="tspan3348"
           sodipodi:role="line"
           y="-253.31534"
           x="0 9.7199736 14.519963 24.239937 33.959911"
           style="font-size:17.43271255px;font-variant:normal;font-weight:normal;writing-mode:lr-tb;fill:#000000;fill-opacity:1;fill-rule:nonzero;stroke:none;font-family:Helvetica;-inkscape-font-specification:Helvetica">0.800</tspan><tspan
           id="tspan3350"
           sodipodi:role="line"
           y="-316.67422"
           x="0 9.7199736 14.519963 24.239937 33.959911"
           style="font-size:17.43271255px;font-variant:normal;font-weight:normal;writing-mode:lr-tb;fill:#000000;fill-opacity:1;fill-rule:nonzero;stroke:none;font-family:Helvetica;-inkscape-font-specification:Helvetica">1.000</tspan><tspan
           id="tspan3352"
           sodipodi:role="line"
           y="43.160992"
           x="125.51953 137.1595 145.43948 155.15947 159.95946 169.67943 174.47942 179.27942 188.99939 197.75937 324.11899 336.71893 346.43893 356.15891 364.43887 369.23886 374.03885 383.75882 392.5188 529.31854 534.11853 542.87848 552.59845 557.39844 562.19843 571.9184 580.67834"
           style="font-size:17.43271255px;font-variant:normal;font-weight:normal;writing-mode:lr-tb;fill:#000000;fill-opacity:1;fill-rule:nonzero;stroke:none;font-family:Helvetica;-inkscape-font-specification:Helvetica">Synth testCopy testIso test</tspan></text>
</g><path
       id="path3354"
       style="fill:#ffffff;fill-opacity:1;fill-rule:nonzero;stroke:none"
       d="M 81.48,183.96 L 126.36,183.96 L 126.36,620.76 L 81.48,620.76 L 81.48,183.96 z" /><path
       id="path3356"
       style="fill:none;stroke:#000000;stroke-width:0.12;stroke-linecap:round;stroke-linejoin:round;stroke-miterlimit:10;stroke-dasharray:none;stroke-opacity:1"
       d="M 81.36,183.84 L 126.36,183.84 L 126.36,620.76 L 81.36,620.76 L 81.36,183.84 z" /><path
       id="path3358"
       style="fill:#0000ff;fill-opacity:1;fill-rule:nonzero;stroke:none"
       d="M 98.88,189.48 L 112.2,189.48 L 112.2,202.8 L 98.88,202.8 L 98.88,189.48 z" /><path
       id="path3360"
       style="fill:none;stroke:#000000;stroke-width:0.12;stroke-linecap:round;stroke-linejoin:round;stroke-miterlimit:10;stroke-dasharray:none;stroke-opacity:1"
       d="M 98.76,189.36 L 112.2,189.36 L 112.2,202.8 L 98.76,202.8 L 98.76,189.36 z" /><g
       id="g3362"><text
         id="text3364"
         transform="matrix(0,1,0.9981235,0,112.32,208.08)"><tspan
           id="tspan3366"
           sodipodi:role="line"
           y="0"
           x="0 14.640008 25.560011 37.800018 43.92001 56.160019 62.28001 68.400002 75.720009 87.960022 92.88002 105.12003 117.36004"
           style="font-size:22.00128555px;font-variant:normal;font-weight:normal;writing-mode:lr-tb;fill:#000000;fill-opacity:1;fill-rule:nonzero;stroke:none;font-family:Helvetica;-inkscape-font-specification:Helvetica">Synth trained</tspan></text>
</g><path
       id="path3368"
       style="fill:#32cccc;fill-opacity:1;fill-rule:evenodd;stroke:none"
       d="M 98.4,345.6 L 111.84,345.6 L 111.84,359.04 L 98.4,359.04 L 98.4,345.6 z" /><path
       id="path3370"
       style="fill:none;stroke:#000000;stroke-width:0.95999998;stroke-linecap:round;stroke-linejoin:miter;stroke-miterlimit:10;stroke-dasharray:none;stroke-opacity:1"
       d="M 98.4,345.6 L 111.84,345.6 L 111.84,359.04 L 98.4,359.04 L 98.4,345.6 z" /><g
       id="g3372"><text
         id="text3374"
         transform="matrix(0,1,0.9981235,0,112.32,364.32)"><tspan
           id="tspan3376"
           sodipodi:role="line"
           y="0"
           x="0 15.840015 28.080025 40.320034 51.240051 57.360043 63.48003 70.800041 83.040054 87.960052 100.20006 112.44007"
           style="font-size:22.00128555px;font-variant:normal;font-weight:normal;writing-mode:lr-tb;fill:#000000;fill-opacity:1;fill-rule:nonzero;stroke:none;font-family:Helvetica;-inkscape-font-specification:Helvetica">Copy trained</tspan></text>
</g><path
       id="path3378"
       style="fill:#ffffcc;fill-opacity:1;fill-rule:evenodd;stroke:none"
       d="M 98.4,496.92 L 111.84,496.92 L 111.84,510.36 L 98.4,510.36 L 98.4,496.92 z" /><path
       id="path3380"
       style="fill:none;stroke:#000000;stroke-width:0.95999998;stroke-linecap:round;stroke-linejoin:miter;stroke-miterlimit:10;stroke-dasharray:none;stroke-opacity:1"
       d="M 98.4,496.92 L 111.84,496.92 L 111.84,510.36 L 98.4,510.36 L 98.4,496.92 z" /><g
       id="g3382"><text
         id="text3384"
         transform="matrix(0,1,0.9981235,0,112.32,515.64)"><tspan
           id="tspan3386"
           sodipodi:role="line"
           y="0"
           x="0 6.1199899 17.160007 29.399988 35.519978 41.639969 48.959949 61.199928 66.119957 78.35994 90.599915"
           style="font-size:22.00128555px;font-variant:normal;font-weight:normal;writing-mode:lr-tb;fill:#000000;fill-opacity:1;fill-rule:nonzero;stroke:none;font-family:Helvetica;-inkscape-font-specification:Helvetica">Iso trained</tspan></text>
</g></g></svg>